<?xml version="1.0" encoding="UTF-8"?>
<!DOCTYPE svg PUBLIC "-//W3C//DTD SVG 1.1//EN" "http://www.w3.org/Graphics/SVG/1.1/DTD/svg11.dtd">
<svg xmlns="http://www.w3.org/2000/svg" version="1.1" width="480px" height="268px" style="shape-rendering:geometricPrecision; text-rendering:geometricPrecision; image-rendering:optimizeQuality; fill-rule:evenodd; clip-rule:evenodd" xmlns:xlink="http://www.w3.org/1999/xlink">
<g><path style="opacity:1" fill="#dc5b25" d="M 228.5,0.5 C 228.5,0.166667 228.5,-0.166667 228.5,-0.5C 237.5,-0.5 246.5,-0.5 255.5,-0.5C 255.5,-0.166667 255.5,0.166667 255.5,0.5C 255.97,1.69348 256.97,2.36015 258.5,2.5C 262.798,3.29653 267.132,3.62987 271.5,3.5C 275.734,5.9555 280.4,7.28883 285.5,7.5C 286.492,7.32842 287.158,7.66175 287.5,8.5C 290.533,10.8677 293.866,13.0343 297.5,15C 299.134,15.4935 300.801,15.6602 302.5,15.5C 302.833,15.5 303.167,15.5 303.5,15.5C 303.5,16.1667 303.833,16.5 304.5,16.5C 308.61,21.2615 313.61,24.9282 319.5,27.5C 321.749,28.0798 323.415,29.4131 324.5,31.5C 324.351,32.552 324.517,33.552 325,34.5C 328.315,37.5392 331.815,40.2058 335.5,42.5C 337.587,43.5846 338.92,45.2512 339.5,47.5C 339.238,48.9778 339.571,50.3112 340.5,51.5C 345.084,57.3426 348.584,63.6759 351,70.5C 351.333,70.1667 351.667,69.8333 352,69.5C 352.54,72.5232 354.04,74.8565 356.5,76.5C 356.338,78.5273 356.505,80.5273 357,82.5C 359.34,86.7073 361.174,91.0407 362.5,95.5C 363.309,101.807 364.143,108.14 365,114.5C 366.754,116.25 368.921,116.917 371.5,116.5C 373.833,116.5 376.167,116.5 378.5,116.5C 375.023,117.323 371.356,117.823 367.5,118C 369.863,118.589 370.863,120.089 370.5,122.5C 369.07,122.579 367.736,122.246 366.5,121.5C 365.702,121.957 365.369,122.624 365.5,123.5C 364.305,123.866 363.639,124.699 363.5,126C 364.394,129.776 364.728,133.61 364.5,137.5C 364.795,139.735 364.461,141.735 363.5,143.5C 361.451,143.706 361.117,144.539 362.5,146C 365.817,146.498 369.15,146.665 372.5,146.5C 371.809,148.022 370.642,149.022 369,149.5C 365.786,148.996 362.786,147.996 360,146.5C 357.306,147.842 354.473,148.842 351.5,149.5C 355.827,150.954 360.16,151.954 364.5,152.5C 362.533,152.261 360.699,152.594 359,153.5C 358.502,156.482 358.335,159.482 358.5,162.5C 354.526,167.453 352.526,173.119 352.5,179.5C 351.167,179.5 349.833,179.5 348.5,179.5C 346.757,183.288 345.423,187.288 344.5,191.5C 342.319,191.284 340.653,192.117 339.5,194C 336.854,194.497 334.187,194.664 331.5,194.5C 330.101,193.11 328.434,192.11 326.5,191.5C 325.388,188.054 323.055,186.054 319.5,185.5C 314.821,181.154 310.488,176.488 306.5,171.5C 304.827,169.914 302.827,169.247 300.5,169.5C 300.5,168.5 300.5,167.5 300.5,166.5C 299.448,166.649 298.448,166.483 297.5,166C 295.215,163.2 292.548,161.033 289.5,159.5C 286.907,158.246 284.573,156.58 282.5,154.5C 281.833,153.5 281.167,152.5 280.5,151.5C 278.35,149.32 277.016,146.653 276.5,143.5C 278.527,143.662 280.527,143.495 282.5,143C 281.736,140.931 281.236,138.764 281,136.5C 280.667,138.5 280.333,140.5 280,142.5C 279.727,140.899 279.227,139.399 278.5,138C 278.957,137.586 279.291,137.086 279.5,136.5C 277.335,136.349 275.002,135.683 272.5,134.5C 271.571,133.311 271.238,131.978 271.5,130.5C 269.005,129.801 266.672,128.801 264.5,127.5C 264.5,128.5 264.5,129.5 264.5,130.5C 265.5,130.5 266.5,130.5 267.5,130.5C 268.119,133.311 269.452,135.811 271.5,138C 271.167,138.5 270.833,139 270.5,139.5C 269.278,137.022 267.278,136.022 264.5,136.5C 262.5,135.167 260.833,133.5 259.5,131.5C 258.738,129.738 257.404,128.738 255.5,128.5C 253.833,126.5 252.167,124.5 250.5,122.5C 248.75,117.289 245.416,113.623 240.5,111.5C 240.167,111.5 239.833,111.5 239.5,111.5C 239.5,110.5 239.5,109.5 239.5,108.5C 234.138,108.472 228.805,108.806 223.5,109.5C 223.5,110.833 223.5,112.167 223.5,113.5C 222.127,113.343 220.793,113.51 219.5,114C 217.498,118.51 214.164,121.343 209.5,122.5C 209.307,125.308 208.64,127.975 207.5,130.5C 202.019,133.003 198.685,137.337 197.5,143.5C 193.826,146.878 190.159,150.211 186.5,153.5C 183.379,154.288 181.712,156.288 181.5,159.5C 181.167,159.5 180.833,159.5 180.5,159.5C 178.956,159.703 177.622,160.37 176.5,161.5C 175.833,160.833 175.167,160.167 174.5,159.5C 173.758,161.108 173.591,162.775 174,164.5C 172.601,165.227 171.101,165.727 169.5,166C 166.874,169.1 164.541,172.267 162.5,175.5C 159.833,176.366 157.167,177.366 154.5,178.5C 152.16,181.953 149.494,184.953 146.5,187.5C 146.5,188.167 146.167,188.5 145.5,188.5C 144.363,189.789 143.03,190.789 141.5,191.5C 139.083,187.871 137.249,183.871 136,179.5C 134.693,177.808 133.193,176.475 131.5,175.5C 131.5,175.167 131.5,174.833 131.5,174.5C 131.5,173.167 131.5,171.833 131.5,170.5C 131.333,158.495 131.5,146.495 132,134.5C 138.637,135.026 142.47,132.026 143.5,125.5C 143.5,124.5 143.5,123.5 143.5,122.5C 143.5,121.5 143.5,120.5 143.5,119.5C 140.183,120.221 136.849,120.388 133.5,120C 134.071,118.795 134.738,117.628 135.5,116.5C 138.289,115.352 140.956,114.019 143.5,112.5C 142.465,110.872 142.465,109.205 143.5,107.5C 148.039,107.678 152.539,107.345 157,106.5C 158.951,107.285 160.785,108.285 162.5,109.5C 163.386,108.675 163.719,107.675 163.5,106.5C 164.873,106.657 166.207,106.49 167.5,106C 166.426,105.261 165.759,104.261 165.5,103C 166.856,101.433 167.523,99.5996 167.5,97.5C 168.833,97.5 170.167,97.5 171.5,97.5C 171.286,95.8561 171.62,94.3561 172.5,93C 165.621,90.1631 158.621,89.9964 151.5,92.5C 143.512,91.8341 135.512,91.5007 127.5,91.5C 127.5,89.8333 127.5,88.1667 127.5,86.5C 132.098,86.0173 136.598,86.0173 141,86.5C 142.615,84.9893 142.615,83.656 141,82.5C 140.667,82.8333 140.333,83.1667 140,83.5C 138.234,81.404 136.901,79.0707 136,76.5C 134.853,77.4581 133.853,77.1247 133,75.5C 132.517,74.552 132.351,73.552 132.5,72.5C 133.75,69.994 134.416,67.3274 134.5,64.5C 134.5,63.8333 134.833,63.5 135.5,63.5C 137.193,62.5251 138.693,61.1918 140,59.5C 142.063,55.6044 143.896,51.6044 145.5,47.5C 150.889,43.1133 155.556,38.1133 159.5,32.5C 159.5,32.1667 159.5,31.8333 159.5,31.5C 159.833,31.5 160.167,31.5 160.5,31.5C 166.083,28.2531 171.083,24.2531 175.5,19.5C 178.812,19.851 181.145,18.5177 182.5,15.5C 182.833,15.5 183.167,15.5 183.5,15.5C 187.049,15.1215 190.049,13.6215 192.5,11C 203.772,6.8298 215.439,4.16313 227.5,3C 228.999,2.16184 229.332,1.32851 228.5,0.5 Z"/></g>
<g><path style="opacity:1" fill="#fcf7ed" d="M 205.5,-0.5 C 213.167,-0.5 220.833,-0.5 228.5,-0.5C 228.5,-0.166667 228.5,0.166667 228.5,0.5C 225.482,0.703809 222.482,1.03714 219.5,1.5C 216.505,1.29379 213.838,1.96046 211.5,3.5C 204.647,4.92938 197.98,6.92938 191.5,9.5C 193.793,7.97571 195.793,5.97571 197.5,3.5C 200.358,2.33907 203.025,1.00574 205.5,-0.5 Z"/></g>
<g><path style="opacity:1" fill="#c17144" d="M 255.5,0.5 C 261.137,0.585279 266.471,1.58528 271.5,3.5C 267.132,3.62987 262.798,3.29653 258.5,2.5C 256.97,2.36015 255.97,1.69348 255.5,0.5 Z"/></g>
<g><path style="opacity:1" fill="#e4b198" d="M 219.5,1.5 C 217.095,2.7682 214.428,3.43487 211.5,3.5C 213.838,1.96046 216.505,1.29379 219.5,1.5 Z"/></g>
<g><path style="opacity:1" fill="#c47859" d="M 271.5,3.5 C 276.529,3.92046 281.195,5.2538 285.5,7.5C 280.4,7.28883 275.734,5.9555 271.5,3.5 Z"/></g>
<g><path style="opacity:1" fill="#c46c49" d="M 228.5,0.5 C 229.332,1.32851 228.999,2.16184 227.5,3C 215.439,4.16313 203.772,6.8298 192.5,11C 190.049,13.6215 187.049,15.1215 183.5,15.5C 186.167,13.5 188.833,11.5 191.5,9.5C 197.98,6.92938 204.647,4.92938 211.5,3.5C 214.428,3.43487 217.095,2.7682 219.5,1.5C 222.482,1.03714 225.482,0.703809 228.5,0.5 Z"/></g>
<g><path style="opacity:1" fill="#bc673f" d="M 287.5,8.5 C 291.058,10.1117 294.725,11.445 298.5,12.5C 299.833,13.5 301.167,14.5 302.5,15.5C 300.801,15.6602 299.134,15.4935 297.5,15C 293.866,13.0343 290.533,10.8677 287.5,8.5 Z"/></g>
<g><path style="opacity:1" fill="#f9f0de" d="M 303.5,15.5 C 306.397,15.788 309.23,16.4546 312,17.5C 313.93,17.0915 315.764,16.4248 317.5,15.5C 318.167,15.8333 318.833,16.1667 319.5,16.5C 317.988,17.2494 316.988,18.416 316.5,20C 318.201,21.8603 319.201,24.027 319.5,26.5C 314.672,22.9186 309.672,19.5852 304.5,16.5C 303.833,16.5 303.5,16.1667 303.5,15.5 Z"/></g>
<g><path style="opacity:1" fill="#c17856" d="M 182.5,15.5 C 181.145,18.5177 178.812,19.851 175.5,19.5C 176.167,18.8333 176.833,18.1667 177.5,17.5C 179.167,16.8333 180.833,16.1667 182.5,15.5 Z"/></g>
<g><path style="opacity:1" fill="#be663e" d="M 304.5,16.5 C 309.672,19.5852 314.672,22.9186 319.5,26.5C 319.5,26.8333 319.5,27.1667 319.5,27.5C 313.61,24.9282 308.61,21.2615 304.5,16.5 Z"/></g>
<g><path style="opacity:1" fill="#c7765b" d="M 175.5,19.5 C 171.083,24.2531 166.083,28.2531 160.5,31.5C 164.917,26.7469 169.917,22.7469 175.5,19.5 Z"/></g>
<g><path style="opacity:1" fill="#fcf4e5" d="M 177.5,17.5 C 176.833,18.1667 176.167,18.8333 175.5,19.5C 169.917,22.7469 164.917,26.7469 160.5,31.5C 160.167,31.5 159.833,31.5 159.5,31.5C 161.167,28.1667 162.833,24.8333 164.5,21.5C 166.262,21.6427 167.929,21.3094 169.5,20.5C 170.556,18.3542 172.056,16.6875 174,15.5C 175.077,16.4295 176.244,17.0962 177.5,17.5 Z"/></g>
<g><path style="opacity:1" fill="#fae7d4" d="M 319.5,27.5 C 319.5,27.1667 319.5,26.8333 319.5,26.5C 320.873,26.3433 322.207,26.51 323.5,27C 326.683,30.6802 330.35,33.8469 334.5,36.5C 335.784,39.2819 337.617,41.6153 340,43.5C 340.49,44.7932 340.657,46.1266 340.5,47.5C 340.167,47.5 339.833,47.5 339.5,47.5C 338.92,45.2512 337.587,43.5846 335.5,42.5C 335.631,41.7611 335.464,41.0944 335,40.5C 331.304,37.5927 327.804,34.5927 324.5,31.5C 323.415,29.4131 321.749,28.0798 319.5,27.5 Z"/></g>
<g><path style="opacity:1" fill="#c06942" d="M 159.5,32.5 C 155.556,38.1133 150.889,43.1133 145.5,47.5C 146.441,45.2279 147.774,43.2279 149.5,41.5C 152.833,38.5 156.167,35.5 159.5,32.5 Z"/></g>
<g><path style="opacity:1" fill="#c86546" d="M 324.5,31.5 C 327.804,34.5927 331.304,37.5927 335,40.5C 335.464,41.0944 335.631,41.7611 335.5,42.5C 331.815,40.2058 328.315,37.5392 325,34.5C 324.517,33.552 324.351,32.552 324.5,31.5 Z"/></g>
<g><path style="opacity:1" fill="#fceacb" d="M 159.5,31.5 C 159.5,31.8333 159.5,32.1667 159.5,32.5C 156.167,35.5 152.833,38.5 149.5,41.5C 149.891,38.0603 151.724,35.7269 155,34.5C 155.483,33.552 155.649,32.552 155.5,31.5C 156.833,31.5 158.167,31.5 159.5,31.5 Z"/></g>
<g><path style="opacity:1" fill="#c06e45" d="M 145.5,47.5 C 143.896,51.6044 142.063,55.6044 140,59.5C 138.693,61.1918 137.193,62.5251 135.5,63.5C 137.818,57.5304 141.151,52.197 145.5,47.5 Z"/></g>
<g><path style="opacity:1" fill="#faedd5" d="M 340.5,47.5 C 343.775,48.6139 345.942,50.9473 347,54.5C 350.606,56.3782 352.106,59.3782 351.5,63.5C 347.836,58.175 344.17,52.8417 340.5,47.5 Z"/></g>
<g><path style="opacity:1" fill="#b1d8de" d="M 98.5,41.5 C 101.187,41.3359 103.854,41.5026 106.5,42C 108.155,43.4443 108.822,45.2776 108.5,47.5C 113.862,47.5461 115.862,50.2128 114.5,55.5C 104.311,57.5119 93.9774,58.0119 83.5,57C 80.6202,54.7469 79.9535,51.9135 81.5,48.5C 82.7362,47.7542 84.0695,47.4208 85.5,47.5C 85.5608,44.9505 86.8941,43.4505 89.5,43C 92.6946,42.8195 95.6946,42.3195 98.5,41.5 Z"/></g>
<g><path style="opacity:1" fill="#a4dce8" d="M 92.5,45.5 C 94.3588,45.4609 95.6921,46.2942 96.5,48C 101.464,48.9122 106.464,49.4122 111.5,49.5C 111.5,51.1667 111.5,52.8333 111.5,54.5C 105.771,54.2123 100.104,54.5456 94.5,55.5C 91.557,54.7565 88.557,54.2565 85.5,54C 86.2489,52.2663 86.7489,50.433 87,48.5C 89.2092,48.0108 91.0425,47.0108 92.5,45.5 Z"/></g>
<g><path style="opacity:1" fill="#cd6539" d="M 339.5,47.5 C 339.833,47.5 340.167,47.5 340.5,47.5C 344.17,52.8417 347.836,58.175 351.5,63.5C 353.444,67.7225 355.111,72.0558 356.5,76.5C 354.04,74.8565 352.54,72.5232 352,69.5C 351.667,69.8333 351.333,70.1667 351,70.5C 348.584,63.6759 345.084,57.3426 340.5,51.5C 339.571,50.3112 339.238,48.9778 339.5,47.5 Z"/></g>
<g><path style="opacity:1" fill="#f9f1e9" d="M 409.5,91.5 C 408.5,91.5 407.5,91.5 406.5,91.5C 406.626,89.8002 407.293,88.3002 408.5,87C 407.396,84.9911 406.729,82.8244 406.5,80.5C 406.656,74.8115 406.656,69.1449 406.5,63.5C 405.5,63.5 404.5,63.5 403.5,63.5C 403.768,65.099 403.434,66.4324 402.5,67.5C 401.095,61.7364 401.428,56.0697 403.5,50.5C 404.822,50.33 405.989,50.6634 407,51.5C 409.058,58.0556 410.558,64.7223 411.5,71.5C 410.197,78.273 409.53,84.9396 409.5,91.5 Z"/></g>
<g><path style="opacity:1" fill="#c1714b" d="M 134.5,64.5 C 134.416,67.3274 133.75,69.994 132.5,72.5C 131.054,75.0864 129.387,77.4197 127.5,79.5C 129.044,74.0806 131.378,69.0806 134.5,64.5 Z"/></g>
<g><path style="opacity:1" fill="#f0e0c8" d="M 402.5,67.5 C 403.118,74.915 403.452,82.2483 403.5,89.5C 403.253,90.7133 402.586,91.38 401.5,91.5C 401.26,83.468 401.593,75.468 402.5,67.5 Z"/></g>
<g><path style="opacity:1" fill="#d7967f" d="M 127.5,79.5 C 127.585,82.6489 126.585,85.3155 124.5,87.5C 124.733,84.4582 125.733,81.7916 127.5,79.5 Z"/></g>
<g><path style="opacity:1" fill="#d17c5c" d="M 406.5,91.5 C 406.918,92.2216 407.584,92.7216 408.5,93C 406.365,94.5557 406.032,96.3891 407.5,98.5C 404.447,98.5721 401.781,99.5721 399.5,101.5C 401.235,99.7655 402.568,97.7655 403.5,95.5C 403.058,94.2613 402.391,93.2613 401.5,92.5C 401.5,92.1667 401.5,91.8333 401.5,91.5C 402.586,91.38 403.253,90.7133 403.5,89.5C 403.452,82.2483 403.118,74.915 402.5,67.5C 403.434,66.4324 403.768,65.099 403.5,63.5C 404.5,63.5 405.5,63.5 406.5,63.5C 406.656,69.1449 406.656,74.8115 406.5,80.5C 406.729,82.8244 407.396,84.9911 408.5,87C 407.293,88.3002 406.626,89.8002 406.5,91.5 Z"/></g>
<g><path style="opacity:1" fill="#c3704f" d="M 356.5,76.5 C 357.167,77.5 357.833,78.5 358.5,79.5C 360.45,84.6834 361.784,90.0167 362.5,95.5C 361.174,91.0407 359.34,86.7073 357,82.5C 356.505,80.5273 356.338,78.5273 356.5,76.5 Z"/></g>
<g><path style="opacity:1" fill="#bf8e6f" d="M 124.5,88.5 C 124.5,90.8333 124.5,93.1667 124.5,95.5C 124.167,95.5 123.833,95.5 123.5,95.5C 123.167,95.5 122.833,95.5 122.5,95.5C 122.721,92.9327 123.388,90.5994 124.5,88.5 Z"/></g>
<g><path style="opacity:1" fill="#fdf5e1" d="M 358.5,79.5 C 360.335,80.1223 361.502,81.4556 362,83.5C 365.27,93.2183 367.103,103.218 367.5,113.5C 372.833,112.833 378.167,112.167 383.5,111.5C 379.767,113.411 375.767,114.744 371.5,115.5C 369.234,115.859 367.401,115.192 366,113.5C 365.944,107.149 364.777,101.149 362.5,95.5C 361.784,90.0167 360.45,84.6834 358.5,79.5 Z"/></g>
<g><path style="opacity:1" fill="#b3afab" d="M 13.5,94.5 C 10.5,94.5 7.5,94.5 4.5,94.5C 4.5,95.5 4.5,96.5 4.5,97.5C 3.56552,96.4324 3.23219,95.099 3.5,93.5C 7.04185,93.1872 10.3752,93.5206 13.5,94.5 Z"/></g>
<g><path style="opacity:1" fill="#90461e" d="M 159.5,100.5 C 160.588,99.0002 161.921,97.6669 163.5,96.5C 156.866,95.5033 150.2,95.17 143.5,95.5C 151,94.6037 158.667,93.9371 166.5,93.5C 167.145,98.6943 164.811,101.028 159.5,100.5 Z"/></g>
<g><path style="opacity:1" fill="#acd8e3" d="M 417.5,105.5 C 416.833,105.5 416.167,105.5 415.5,105.5C 415.5,105.167 415.5,104.833 415.5,104.5C 413.873,102.37 412.04,100.37 410,98.5C 409.51,97.2068 409.343,95.8734 409.5,94.5C 415.212,92.3255 421.212,91.4922 427.5,92C 430.594,92.4706 432.261,94.304 432.5,97.5C 436.423,98.9656 437.423,101.632 435.5,105.5C 429.501,108.116 423.501,108.116 417.5,105.5 Z"/></g>
<g><path style="opacity:1" fill="#544538" d="M 13.5,94.5 C 49.8216,95.4325 86.1549,95.7659 122.5,95.5C 122.833,95.5 123.167,95.5 123.5,95.5C 123.351,96.552 123.517,97.552 124,98.5C 124.333,98.1667 124.667,97.8333 125,97.5C 129.047,99.9958 133.547,100.996 138.5,100.5C 138.5,101.833 138.5,103.167 138.5,104.5C 137.781,106.764 137.448,109.097 137.5,111.5C 134.956,111.104 132.789,111.771 131,113.5C 130.42,117.171 129.254,120.504 127.5,123.5C 130.85,123.335 134.183,123.502 137.5,124C 138.423,126.041 138.756,128.208 138.5,130.5C 135.615,130.194 132.948,130.527 130.5,131.5C 129.833,131.5 129.5,131.833 129.5,132.5C 127.692,133.918 127.025,135.918 127.5,138.5C 125.39,137.547 124.223,135.881 124,133.5C 123.184,132.177 122.017,131.511 120.5,131.5C 96.5,131.5 72.5,131.5 48.5,131.5C 47.8333,144.673 47.1667,158.006 46.5,171.5C 44.9291,172.309 43.2624,172.643 41.5,172.5C 41.829,158.656 41.4957,144.99 40.5,131.5C 37.1667,131.5 33.8333,131.5 30.5,131.5C 30.5,129.5 30.5,127.5 30.5,125.5C 29.1667,125.5 27.8333,125.5 26.5,125.5C 26.5,124.5 26.5,123.5 26.5,122.5C 31.1667,122.5 35.8333,122.5 40.5,122.5C 38.5549,119.515 37.5549,116.182 37.5,112.5C 35.1667,112.5 32.8333,112.5 30.5,112.5C 30.5,109.833 30.5,107.167 30.5,104.5C 23.666,104.911 16.9993,104.244 10.5,102.5C 10.5,101.167 10.5,99.8333 10.5,98.5C 8.43525,98.4828 6.43525,98.1495 4.5,97.5C 4.5,96.5 4.5,95.5 4.5,94.5C 7.5,94.5 10.5,94.5 13.5,94.5 Z"/></g>
<g><path style="opacity:1" fill="#ddc7bb" d="M 406.5,91.5 C 407.5,91.5 408.5,91.5 409.5,91.5C 409.5,92.5 409.5,93.5 409.5,94.5C 409.343,95.8734 409.51,97.2068 410,98.5C 412.04,100.37 413.873,102.37 415.5,104.5C 412.569,102.909 409.902,100.909 407.5,98.5C 406.032,96.3891 406.365,94.5557 408.5,93C 407.584,92.7216 406.918,92.2216 406.5,91.5 Z"/></g>
<g><path style="opacity:1" fill="#574032" d="M 123.5,95.5 C 123.833,95.5 124.167,95.5 124.5,95.5C 130.833,95.5 137.167,95.5 143.5,95.5C 150.2,95.17 156.866,95.5033 163.5,96.5C 161.921,97.6669 160.588,99.0002 159.5,100.5C 159.5,100.833 159.5,101.167 159.5,101.5C 153.657,102.696 147.824,102.696 142,101.5C 140.826,102.544 139.659,103.544 138.5,104.5C 138.5,103.167 138.5,101.833 138.5,100.5C 133.547,100.996 129.047,99.9958 125,97.5C 124.667,97.8333 124.333,98.1667 124,98.5C 123.517,97.552 123.351,96.552 123.5,95.5 Z"/></g>
<g><path style="opacity:1" fill="#d25c2a" d="M 132.5,72.5 C 132.351,73.552 132.517,74.552 133,75.5C 133.853,77.1247 134.853,77.4581 136,76.5C 136.901,79.0707 138.234,81.404 140,83.5C 140.333,83.1667 140.667,82.8333 141,82.5C 142.615,83.656 142.615,84.9893 141,86.5C 136.598,86.0173 132.098,86.0173 127.5,86.5C 127.5,88.1667 127.5,89.8333 127.5,91.5C 135.512,91.5007 143.512,91.8341 151.5,92.5C 158.621,89.9964 165.621,90.1631 172.5,93C 171.62,94.3561 171.286,95.8561 171.5,97.5C 170.167,97.5 168.833,97.5 167.5,97.5C 167.523,99.5996 166.856,101.433 165.5,103C 165.759,104.261 166.426,105.261 167.5,106C 166.207,106.49 164.873,106.657 163.5,106.5C 163.719,107.675 163.386,108.675 162.5,109.5C 160.785,108.285 158.951,107.285 157,106.5C 152.539,107.345 148.039,107.678 143.5,107.5C 148.396,105.554 153.729,104.887 159.5,105.5C 159.5,104.5 159.5,103.5 159.5,102.5C 159.5,102.167 159.5,101.833 159.5,101.5C 159.5,101.167 159.5,100.833 159.5,100.5C 164.811,101.028 167.145,98.6943 166.5,93.5C 158.667,93.9371 151,94.6037 143.5,95.5C 137.167,95.5 130.833,95.5 124.5,95.5C 124.5,93.1667 124.5,90.8333 124.5,88.5C 124.5,88.1667 124.5,87.8333 124.5,87.5C 126.585,85.3155 127.585,82.6489 127.5,79.5C 129.387,77.4197 131.054,75.0864 132.5,72.5 Z"/></g>
<g><path style="opacity:1" fill="#bbb3ab" d="M 10.5,102.5 C 16.9993,104.244 23.666,104.911 30.5,104.5C 30.5,107.167 30.5,109.833 30.5,112.5C 29.5318,110.393 29.1984,108.059 29.5,105.5C 23.4632,105.829 17.4632,105.496 11.5,104.5C 11.1373,103.817 10.8039,103.15 10.5,102.5 Z"/></g>
<g><path style="opacity:1" fill="#a1532e" d="M 159.5,102.5 C 159.5,103.5 159.5,104.5 159.5,105.5C 153.729,104.887 148.396,105.554 143.5,107.5C 141.366,108.703 140.032,110.537 139.5,113C 137.527,113.495 135.527,113.662 133.5,113.5C 134.833,112.833 136.167,112.167 137.5,111.5C 139.536,109.794 140.536,107.461 140.5,104.5C 147.047,104.984 153.38,104.317 159.5,102.5 Z"/></g>
<g><path style="opacity:1" fill="#cb7551" d="M 399.5,101.5 C 397.408,104.917 394.408,107.25 390.5,108.5C 393.208,105.791 396.208,103.458 399.5,101.5 Z"/></g>
<g><path style="opacity:1" fill="#643d23" d="M 159.5,101.5 C 159.5,101.833 159.5,102.167 159.5,102.5C 153.38,104.317 147.047,104.984 140.5,104.5C 140.536,107.461 139.536,109.794 137.5,111.5C 137.448,109.097 137.781,106.764 138.5,104.5C 139.659,103.544 140.826,102.544 142,101.5C 147.824,102.696 153.657,102.696 159.5,101.5 Z"/></g>
<g><path style="opacity:1" fill="#faf3e4" d="M 401.5,92.5 C 402.391,93.2613 403.058,94.2613 403.5,95.5C 402.568,97.7655 401.235,99.7655 399.5,101.5C 396.208,103.458 393.208,105.791 390.5,108.5C 388.372,109.957 386.038,110.957 383.5,111.5C 387.049,106.785 391.382,102.951 396.5,100C 387.702,96.6281 387.702,95.2947 396.5,96C 398.027,97.6324 399.693,97.7991 401.5,96.5C 399.261,95.3345 399.261,94.0012 401.5,92.5 Z"/></g>
<g><path style="opacity:1" fill="#c8765b" d="M 415.5,105.5 C 416.167,105.5 416.833,105.5 417.5,105.5C 418.5,106.833 419.5,108.167 420.5,109.5C 418.205,108.864 416.539,107.531 415.5,105.5 Z"/></g>
<g><path style="opacity:1" fill="#cf6337" d="M 239.5,111.5 C 233.911,111.002 228.578,111.668 223.5,113.5C 223.5,112.167 223.5,110.833 223.5,109.5C 228.805,108.806 234.138,108.472 239.5,108.5C 239.5,109.5 239.5,110.5 239.5,111.5 Z"/></g>
<g><path style="opacity:1" fill="#dd977b" d="M 362.5,95.5 C 364.777,101.149 365.944,107.149 366,113.5C 367.401,115.192 369.234,115.859 371.5,115.5C 371.5,115.833 371.5,116.167 371.5,116.5C 368.921,116.917 366.754,116.25 365,114.5C 364.143,108.14 363.309,101.807 362.5,95.5 Z"/></g>
<g><path style="opacity:1" fill="#9e958c" d="M 118.5,113.5 C 109.833,113.5 101.167,113.5 92.5,113.5C 92.5,116.5 92.5,119.5 92.5,122.5C 91.5206,119.375 91.1872,116.042 91.5,112.5C 100.682,112.173 109.682,112.507 118.5,113.5 Z"/></g>
<g><path style="opacity:1" fill="#c8653c" d="M 223.5,113.5 C 220.913,116.429 218.246,119.429 215.5,122.5C 213.194,125.473 210.527,128.14 207.5,130.5C 208.64,127.975 209.307,125.308 209.5,122.5C 214.164,121.343 217.498,118.51 219.5,114C 220.793,113.51 222.127,113.343 223.5,113.5 Z"/></g>
<g><path style="opacity:1" fill="#da7355" d="M 421.5,109.5 C 424.167,110.833 426.833,112.167 429.5,113.5C 429.5,113.833 429.5,114.167 429.5,114.5C 425.463,114.824 422.797,113.158 421.5,109.5 Z"/></g>
<g><path style="opacity:1" fill="#f9f8f4" d="M 51.5,113.5 C 60.5,113.5 69.5,113.5 78.5,113.5C 78.5,116.5 78.5,119.5 78.5,122.5C 68.5,122.5 58.5,122.5 48.5,122.5C 49.9697,119.682 50.9697,116.682 51.5,113.5 Z"/></g>
<g><path style="opacity:1" fill="#faf8f6" d="M 118.5,113.5 C 118.963,116.482 119.296,119.482 119.5,122.5C 110.5,122.5 101.5,122.5 92.5,122.5C 92.5,119.5 92.5,116.5 92.5,113.5C 101.167,113.5 109.833,113.5 118.5,113.5 Z"/></g>
<g><path style="opacity:1" fill="#fbe2cf" d="M 239.5,111.5 C 239.833,111.5 240.167,111.5 240.5,111.5C 241.441,113.772 242.774,115.772 244.5,117.5C 242.876,117.64 241.71,116.973 241,115.5C 240.667,115.833 240.333,116.167 240,116.5C 239.51,115.207 239.343,113.873 239.5,112.5C 235.119,112.372 230.785,112.705 226.5,113.5C 224.305,118.123 220.638,121.123 215.5,122.5C 218.246,119.429 220.913,116.429 223.5,113.5C 228.578,111.668 233.911,111.002 239.5,111.5 Z"/></g>
<g><path style="opacity:1" fill="#d6744c" d="M 390.5,108.5 C 388.067,113.234 384.067,115.901 378.5,116.5C 376.167,116.5 373.833,116.5 371.5,116.5C 371.5,116.167 371.5,115.833 371.5,115.5C 375.767,114.744 379.767,113.411 383.5,111.5C 386.038,110.957 388.372,109.957 390.5,108.5 Z"/></g>
<g><path style="opacity:1" fill="#d69b83" d="M 429.5,114.5 C 429.5,114.167 429.5,113.833 429.5,113.5C 433.368,114.756 437.368,115.423 441.5,115.5C 443.891,115.441 446.225,115.107 448.5,114.5C 449.421,116.031 449.088,117.365 447.5,118.5C 443.627,116.57 439.294,115.903 434.5,116.5C 433.07,115.463 431.403,114.796 429.5,114.5 Z"/></g>
<g><path style="opacity:1" fill="#723c22" d="M 137.5,111.5 C 136.167,112.167 134.833,112.833 133.5,113.5C 132.213,116.406 131.213,119.406 130.5,122.5C 134.833,122.5 139.167,122.5 143.5,122.5C 143.5,123.5 143.5,124.5 143.5,125.5C 142.5,125.5 141.5,125.5 140.5,125.5C 140.946,128.01 140.28,130.01 138.5,131.5C 135.833,131.5 133.167,131.5 130.5,131.5C 132.948,130.527 135.615,130.194 138.5,130.5C 138.756,128.208 138.423,126.041 137.5,124C 134.183,123.502 130.85,123.335 127.5,123.5C 129.254,120.504 130.42,117.171 131,113.5C 132.789,111.771 134.956,111.104 137.5,111.5 Z"/></g>
<g><path style="opacity:1" fill="#c36138" d="M 143.5,107.5 C 142.465,109.205 142.465,110.872 143.5,112.5C 140.956,114.019 138.289,115.352 135.5,116.5C 134.738,117.628 134.071,118.795 133.5,120C 136.849,120.388 140.183,120.221 143.5,119.5C 143.5,120.5 143.5,121.5 143.5,122.5C 139.167,122.5 134.833,122.5 130.5,122.5C 131.213,119.406 132.213,116.406 133.5,113.5C 135.527,113.662 137.527,113.495 139.5,113C 140.032,110.537 141.366,108.703 143.5,107.5 Z"/></g>
<g><path style="opacity:1" fill="#c66b4a" d="M 240.5,111.5 C 245.416,113.623 248.75,117.289 250.5,122.5C 248.5,120.833 246.5,119.167 244.5,117.5C 242.774,115.772 241.441,113.772 240.5,111.5 Z"/></g>
<g><path style="opacity:1" fill="#da6937" d="M 434.5,116.5 C 439.294,115.903 443.627,116.57 447.5,118.5C 445.588,120.99 443.255,122.99 440.5,124.5C 435.833,124.5 431.167,124.5 426.5,124.5C 430.982,123.674 435.649,123.174 440.5,123C 441.167,121.667 441.833,120.333 442.5,119C 440.167,118.667 437.833,118.333 435.5,118C 434.944,117.617 434.611,117.117 434.5,116.5 Z"/></g>
<g><path style="opacity:1" fill="#eb612d" d="M 407.5,98.5 C 409.902,100.909 412.569,102.909 415.5,104.5C 415.5,104.833 415.5,105.167 415.5,105.5C 416.539,107.531 418.205,108.864 420.5,109.5C 420.833,109.5 421.167,109.5 421.5,109.5C 422.797,113.158 425.463,114.824 429.5,114.5C 431.403,114.796 433.07,115.463 434.5,116.5C 434.611,117.117 434.944,117.617 435.5,118C 437.833,118.333 440.167,118.667 442.5,119C 441.833,120.333 441.167,121.667 440.5,123C 435.649,123.174 430.982,123.674 426.5,124.5C 425.508,124.328 424.842,124.662 424.5,125.5C 423.167,125.5 421.833,125.5 420.5,125.5C 417.833,124.167 415.167,124.167 412.5,125.5C 412.167,125.5 411.833,125.5 411.5,125.5C 410.833,125.5 410.167,125.5 409.5,125.5C 403.167,124.167 396.833,124.167 390.5,125.5C 388.784,125.371 387.117,125.038 385.5,124.5C 380.602,123.787 375.602,123.121 370.5,122.5C 370.863,120.089 369.863,118.589 367.5,118C 371.356,117.823 375.023,117.323 378.5,116.5C 384.067,115.901 388.067,113.234 390.5,108.5C 394.408,107.25 397.408,104.917 399.5,101.5C 401.781,99.5721 404.447,98.5721 407.5,98.5 Z"/></g>
<g><path style="opacity:1" fill="#fafbfa" d="M 244.5,117.5 C 246.5,119.167 248.5,120.833 250.5,122.5C 252.167,124.5 253.833,126.5 255.5,128.5C 256.262,130.262 257.596,131.262 259.5,131.5C 260.833,133.5 262.5,135.167 264.5,136.5C 267.833,140.167 271.167,143.833 274.5,147.5C 275.877,151.205 278.544,153.539 282.5,154.5C 284.573,156.58 286.907,158.246 289.5,159.5C 292.563,163.566 296.229,166.899 300.5,169.5C 305.898,176.02 312.231,181.353 319.5,185.5C 319.414,186.496 319.748,187.329 320.5,188C 322.405,189.421 324.405,190.588 326.5,191.5C 326.833,192.167 327.167,192.833 327.5,193.5C 323.824,192.246 320.324,190.579 317,188.5C 316.922,190.657 316.755,192.657 316.5,194.5C 311.809,190.641 306.975,186.975 302,183.5C 301.149,187.042 301.649,190.375 303.5,193.5C 301.926,194.631 300.259,194.798 298.5,194C 294.656,191.578 290.99,188.911 287.5,186C 284.263,184.032 280.763,182.865 277,182.5C 268.902,184.81 261.069,187.81 253.5,191.5C 251.833,191.5 250.167,191.5 248.5,191.5C 248.034,189.799 248.034,188.299 248.5,187C 247.615,183.301 246.448,180.134 245,177.5C 242.743,179.625 240.743,181.958 239,184.5C 236.618,183.134 234.452,183.467 232.5,185.5C 232.452,188.918 231.785,192.418 230.5,196C 229.175,195.852 228.008,196.018 227,196.5C 226.004,194.34 224.504,192.673 222.5,191.5C 221.778,191.082 221.278,190.416 221,189.5C 220.667,186.167 220.333,182.833 220,179.5C 208.106,186.284 197.773,194.951 189,205.5C 190.333,200.833 191.667,196.167 193,191.5C 189.261,195.287 185.094,198.12 180.5,200C 181.437,197.293 182.77,194.793 184.5,192.5C 174.2,190.227 165.7,193.227 159,201.5C 159.353,197.587 159.52,193.587 159.5,189.5C 155.973,189.504 152.473,189.837 149,190.5C 147.319,190.392 146.152,189.725 145.5,188.5C 146.167,188.5 146.5,188.167 146.5,187.5C 151.001,185.084 155.334,182.417 159.5,179.5C 161.124,179.36 162.29,180.027 163,181.5C 167.234,180.201 169.734,177.367 170.5,173C 172.578,170.866 174.412,171.032 176,173.5C 177.111,168.059 180.111,164.059 185,161.5C 190.62,154.507 196.287,147.507 202,140.5C 203.011,139.663 204.178,139.33 205.5,139.5C 205.312,137.897 205.812,136.563 207,135.5C 207.595,136.899 207.428,138.232 206.5,139.5C 207.035,141.271 207.869,141.604 209,140.5C 209.333,138.167 209.667,135.833 210,133.5C 212.331,130.084 214.165,126.417 215.5,122.5C 220.638,121.123 224.305,118.123 226.5,113.5C 230.785,112.705 235.119,112.372 239.5,112.5C 239.343,113.873 239.51,115.207 240,116.5C 240.333,116.167 240.667,115.833 241,115.5C 241.71,116.973 242.876,117.64 244.5,117.5 Z"/></g>
<g><path style="opacity:1" fill="#d76d49" d="M 370.5,122.5 C 375.602,123.121 380.602,123.787 385.5,124.5C 379.441,124.746 373.441,124.413 367.5,123.5C 366.833,123.5 366.167,123.5 365.5,123.5C 365.369,122.624 365.702,121.957 366.5,121.5C 367.736,122.246 369.07,122.579 370.5,122.5 Z"/></g>
<g><path style="opacity:1" fill="#fab6a4" d="M 367.5,123.5 C 373.441,124.413 379.441,124.746 385.5,124.5C 385.5,124.833 385.5,125.167 385.5,125.5C 379.824,125.666 374.157,125.499 368.5,125C 367.944,124.617 367.611,124.117 367.5,123.5 Z"/></g>
<g><path style="opacity:1" fill="#f5b59b" d="M 426.5,124.5 C 431.167,124.5 435.833,124.5 440.5,124.5C 435.695,125.487 430.695,125.821 425.5,125.5C 425.5,128.833 425.5,132.167 425.5,135.5C 425.167,135.5 424.833,135.5 424.5,135.5C 424.5,132.167 424.5,128.833 424.5,125.5C 424.842,124.662 425.508,124.328 426.5,124.5 Z"/></g>
<g><path style="opacity:1" fill="#d56946" d="M 385.5,125.5 C 385.5,125.167 385.5,124.833 385.5,124.5C 387.117,125.038 388.784,125.371 390.5,125.5C 390.5,126.167 390.5,126.833 390.5,127.5C 389.527,129.948 389.194,132.615 389.5,135.5C 388.5,135.5 387.5,135.5 386.5,135.5C 386.813,131.958 386.479,128.625 385.5,125.5 Z"/></g>
<g><path style="opacity:1" fill="#d58a67" d="M 255.5,128.5 C 257.404,128.738 258.738,129.738 259.5,131.5C 257.596,131.262 256.262,130.262 255.5,128.5 Z"/></g>
<g><path style="opacity:1" fill="#fdeee0" d="M 390.5,125.5 C 393.167,125.5 395.833,125.5 398.5,125.5C 398.5,128.167 398.5,130.833 398.5,133.5C 395.833,133.5 393.167,133.5 390.5,133.5C 390.5,131.5 390.5,129.5 390.5,127.5C 390.5,126.833 390.5,126.167 390.5,125.5 Z"/></g>
<g><path style="opacity:1" fill="#f0b798" d="M 412.5,125.5 C 415.167,124.167 417.833,124.167 420.5,125.5C 420.5,128.167 420.5,130.833 420.5,133.5C 420.167,133.5 419.833,133.5 419.5,133.5C 419.5,130.833 419.5,128.167 419.5,125.5C 417.167,125.5 414.833,125.5 412.5,125.5 Z"/></g>
<g><path style="opacity:1" fill="#c2bbb3" d="M 48.5,132.5 C 48.5,132.167 48.5,131.833 48.5,131.5C 72.5,131.5 96.5,131.5 120.5,131.5C 120.5,132.833 120.5,134.167 120.5,135.5C 119.596,134.791 119.263,133.791 119.5,132.5C 95.8333,132.5 72.1667,132.5 48.5,132.5 Z"/></g>
<g><path style="opacity:1" fill="#fbfcfa" d="M 385.5,135.5 C 385.5,135.833 385.5,136.167 385.5,136.5C 387.292,137.309 389.292,137.809 391.5,138C 388.305,138.181 385.305,138.681 382.5,139.5C 381.833,140.167 381.167,140.833 380.5,141.5C 380.167,141.5 379.833,141.5 379.5,141.5C 376.743,142.512 374.076,143.512 371.5,144.5C 370.167,144.5 368.833,144.5 367.5,144.5C 366.731,138.91 366.731,133.243 367.5,127.5C 372.838,126.998 378.172,126.831 383.5,127C 384.128,129.939 384.795,132.772 385.5,135.5 Z"/></g>
<g><path style="opacity:1" fill="#fbf5e7" d="M 412.5,125.5 C 414.833,125.5 417.167,125.5 419.5,125.5C 419.5,128.167 419.5,130.833 419.5,133.5C 417.167,133.5 414.833,133.5 412.5,133.5C 412.5,130.833 412.5,128.167 412.5,125.5 Z"/></g>
<g><path style="opacity:1" fill="#cc6e54" d="M 420.5,125.5 C 421.833,125.5 423.167,125.5 424.5,125.5C 424.5,128.833 424.5,132.167 424.5,135.5C 424.167,135.5 423.833,135.5 423.5,135.5C 422.5,135.5 421.5,135.5 420.5,135.5C 420.5,134.833 420.5,134.167 420.5,133.5C 420.5,130.833 420.5,128.167 420.5,125.5 Z"/></g>
<g><path style="opacity:1" fill="#fdfdfd" d="M 48.5,132.5 C 72.1667,132.5 95.8333,132.5 119.5,132.5C 119.263,133.791 119.596,134.791 120.5,135.5C 120.565,138.428 121.232,141.095 122.5,143.5C 123.031,155.616 122.364,167.616 120.5,179.5C 119.507,187.984 119.174,196.651 119.5,205.5C 117.447,205.402 115.78,206.069 114.5,207.5C 112.033,207.755 110.033,208.755 108.5,210.5C 107.209,210.263 106.209,210.596 105.5,211.5C 96.7514,214.039 88.0847,216.872 79.5,220C 70.9009,227.106 61.9009,233.606 52.5,239.5C 51.5044,226.344 51.1711,213.01 51.5,199.5C 55.3123,198.676 59.3123,198.176 63.5,198C 68.2015,195.571 70.0349,191.738 69,186.5C 67.7365,184.393 65.9032,183.393 63.5,183.5C 62.791,182.596 61.791,182.263 60.5,182.5C 61.0365,177.07 58.7032,173.57 53.5,172C 51.8659,171.506 50.1992,171.34 48.5,171.5C 48.5,158.5 48.5,145.5 48.5,132.5 Z"/></g>
<g><path style="opacity:1" fill="#bf5f32" d="M 143.5,125.5 C 142.47,132.026 138.637,135.026 132,134.5C 131.5,146.495 131.333,158.495 131.5,170.5C 130.34,158.34 130.173,146.007 131,133.5C 133.607,132.877 136.107,132.21 138.5,131.5C 140.28,130.01 140.946,128.01 140.5,125.5C 141.5,125.5 142.5,125.5 143.5,125.5 Z"/></g>
<g><path style="opacity:1" fill="#c7795c" d="M 365.5,123.5 C 365.5,128.167 365.5,132.833 365.5,137.5C 365.167,137.5 364.833,137.5 364.5,137.5C 364.728,133.61 364.394,129.776 363.5,126C 363.639,124.699 364.305,123.866 365.5,123.5 Z"/></g>
<g><path style="opacity:1" fill="#d3602c" d="M 280.5,151.5 C 278.5,150.167 276.5,148.833 274.5,147.5C 271.167,143.833 267.833,140.167 264.5,136.5C 267.278,136.022 269.278,137.022 270.5,139.5C 270.833,139 271.167,138.5 271.5,138C 269.452,135.811 268.119,133.311 267.5,130.5C 266.5,130.5 265.5,130.5 264.5,130.5C 264.5,129.5 264.5,128.5 264.5,127.5C 266.672,128.801 269.005,129.801 271.5,130.5C 271.238,131.978 271.571,133.311 272.5,134.5C 275.002,135.683 277.335,136.349 279.5,136.5C 279.291,137.086 278.957,137.586 278.5,138C 279.227,139.399 279.727,140.899 280,142.5C 280.333,140.5 280.667,138.5 281,136.5C 281.236,138.764 281.736,140.931 282.5,143C 280.527,143.495 278.527,143.662 276.5,143.5C 277.016,146.653 278.35,149.32 280.5,151.5 Z"/></g>
<g><path style="opacity:1" fill="#c57b55" d="M 390.5,125.5 C 396.833,124.167 403.167,124.167 409.5,125.5C 406.833,125.5 404.167,125.5 401.5,125.5C 401.5,128.167 401.5,130.833 401.5,133.5C 404.167,133.5 406.833,133.5 409.5,133.5C 411.369,131.365 412.036,128.698 411.5,125.5C 411.833,125.5 412.167,125.5 412.5,125.5C 412.5,128.167 412.5,130.833 412.5,133.5C 414.833,133.5 417.167,133.5 419.5,133.5C 419.833,133.5 420.167,133.5 420.5,133.5C 420.5,134.167 420.5,134.833 420.5,135.5C 410.167,135.5 399.833,135.5 389.5,135.5C 389.194,132.615 389.527,129.948 390.5,127.5C 390.5,129.5 390.5,131.5 390.5,133.5C 393.167,133.5 395.833,133.5 398.5,133.5C 398.5,130.833 398.5,128.167 398.5,125.5C 395.833,125.5 393.167,125.5 390.5,125.5 Z"/></g>
<g><path style="opacity:1" fill="#fbeedd" d="M 409.5,125.5 C 409.5,128.167 409.5,130.833 409.5,133.5C 406.833,133.5 404.167,133.5 401.5,133.5C 401.5,130.833 401.5,128.167 401.5,125.5C 404.167,125.5 406.833,125.5 409.5,125.5 Z"/></g>
<g><path style="opacity:1" fill="#c9644d" d="M 409.5,125.5 C 410.167,125.5 410.833,125.5 411.5,125.5C 412.036,128.698 411.369,131.365 409.5,133.5C 409.5,130.833 409.5,128.167 409.5,125.5 Z"/></g>
<g><path style="opacity:1" fill="#fbc9b2" d="M 385.5,125.5 C 386.479,128.625 386.813,131.958 386.5,135.5C 387.5,135.5 388.5,135.5 389.5,135.5C 399.833,135.5 410.167,135.5 420.5,135.5C 421.5,135.5 422.5,135.5 423.5,135.5C 411.011,136.495 398.344,136.829 385.5,136.5C 385.5,136.167 385.5,135.833 385.5,135.5C 385.5,132.167 385.5,128.833 385.5,125.5 Z"/></g>
<g><path style="opacity:1" fill="#c66b49" d="M 207.5,130.5 C 204.16,134.839 200.826,139.172 197.5,143.5C 198.685,137.337 202.019,133.003 207.5,130.5 Z"/></g>
<g><path style="opacity:1" fill="#664a32" d="M 120.5,131.5 C 122.017,131.511 123.184,132.177 124,133.5C 124.223,135.881 125.39,137.547 127.5,138.5C 127.5,140.167 127.5,141.833 127.5,143.5C 125.833,143.5 124.167,143.5 122.5,143.5C 121.232,141.095 120.565,138.428 120.5,135.5C 120.5,134.167 120.5,132.833 120.5,131.5 Z"/></g>
<g><path style="opacity:1" fill="#fceee1" d="M 365.5,123.5 C 366.167,123.5 366.833,123.5 367.5,123.5C 367.611,124.117 367.944,124.617 368.5,125C 374.157,125.499 379.824,125.666 385.5,125.5C 385.5,128.833 385.5,132.167 385.5,135.5C 384.795,132.772 384.128,129.939 383.5,127C 378.172,126.831 372.838,126.998 367.5,127.5C 366.731,133.243 366.731,138.91 367.5,144.5C 365.656,142.721 364.99,140.388 365.5,137.5C 365.5,132.833 365.5,128.167 365.5,123.5 Z"/></g>
<g><path style="opacity:1" fill="#fae8dd" d="M 423.5,135.5 C 423.833,135.5 424.167,135.5 424.5,135.5C 424.833,135.5 425.167,135.5 425.5,135.5C 424.537,136.363 424.537,137.03 425.5,137.5C 430.405,135.433 434.405,136.433 437.5,140.5C 436.584,142.784 437.584,143.951 440.5,144C 445.174,144.333 449.84,144.167 454.5,143.5C 454.082,144.222 453.416,144.722 452.5,145C 446.353,145.899 440.353,145.399 434.5,143.5C 431.997,142.744 429.663,141.744 427.5,140.5C 412.676,139.504 397.676,139.171 382.5,139.5C 385.305,138.681 388.305,138.181 391.5,138C 389.292,137.809 387.292,137.309 385.5,136.5C 398.344,136.829 411.011,136.495 423.5,135.5 Z"/></g>
<g><path style="opacity:1" fill="#c8714f" d="M 382.5,139.5 C 397.676,139.171 412.676,139.504 427.5,140.5C 411.798,140.213 396.131,140.546 380.5,141.5C 381.167,140.833 381.833,140.167 382.5,139.5 Z"/></g>
<g><path style="opacity:1" fill="#e1dad5" d="M 30.5,131.5 C 33.8333,131.5 37.1667,131.5 40.5,131.5C 40.8293,146.343 40.496,161.01 39.5,175.5C 39.5,161.167 39.5,146.833 39.5,132.5C 36.2869,132.81 33.2869,132.477 30.5,131.5 Z"/></g>
<g><path style="opacity:1" fill="#e6652c" d="M 427.5,140.5 C 429.663,141.744 431.997,142.744 434.5,143.5C 434.5,144.167 434.5,144.833 434.5,145.5C 427.711,146.101 421.211,145.434 415,143.5C 414.035,145.26 412.868,145.594 411.5,144.5C 414.105,142.584 413.605,141.584 410,141.5C 408.833,141.833 407.667,142.167 406.5,142.5C 407.348,144.409 407.682,146.409 407.5,148.5C 409.5,148.5 411.5,148.5 413.5,148.5C 413.52,150.143 412.853,151.476 411.5,152.5C 412.689,153.429 414.022,153.762 415.5,153.5C 412.995,154.497 410.328,154.497 407.5,153.5C 405.963,149.557 404.63,145.557 403.5,141.5C 399.116,141.174 394.783,141.508 390.5,142.5C 391.833,143.167 393.167,143.833 394.5,144.5C 388.537,145.496 382.537,145.829 376.5,145.5C 377.789,144.363 378.789,143.03 379.5,141.5C 379.833,141.5 380.167,141.5 380.5,141.5C 396.131,140.546 411.798,140.213 427.5,140.5 Z"/></g>
<g><path style="opacity:1" fill="#f6c6aa" d="M 364.5,137.5 C 364.833,137.5 365.167,137.5 365.5,137.5C 364.99,140.388 365.656,142.721 367.5,144.5C 368.833,144.5 370.167,144.5 371.5,144.5C 370.378,145.156 369.045,145.489 367.5,145.5C 365.667,145.415 364.334,144.748 363.5,143.5C 364.461,141.735 364.795,139.735 364.5,137.5 Z"/></g>
<g><path style="opacity:1" fill="#cd704c" d="M 379.5,141.5 C 378.789,143.03 377.789,144.363 376.5,145.5C 374.901,145.232 373.568,145.566 372.5,146.5C 369.15,146.665 365.817,146.498 362.5,146C 361.117,144.539 361.451,143.706 363.5,143.5C 364.334,144.748 365.667,145.415 367.5,145.5C 369.045,145.489 370.378,145.156 371.5,144.5C 374.076,143.512 376.743,142.512 379.5,141.5 Z"/></g>
<g><path style="opacity:1" fill="#ee602c" d="M 407.5,153.5 C 400.48,154.483 393.48,154.817 386.5,154.5C 379.153,153.833 371.82,153.166 364.5,152.5C 360.16,151.954 355.827,150.954 351.5,149.5C 354.473,148.842 357.306,147.842 360,146.5C 362.786,147.996 365.786,148.996 369,149.5C 370.642,149.022 371.809,148.022 372.5,146.5C 373.568,145.566 374.901,145.232 376.5,145.5C 382.537,145.829 388.537,145.496 394.5,144.5C 393.167,143.833 391.833,143.167 390.5,142.5C 394.783,141.508 399.116,141.174 403.5,141.5C 404.63,145.557 405.963,149.557 407.5,153.5 Z"/></g>
<g><path style="opacity:1" fill="#c1724e" d="M 434.5,143.5 C 440.353,145.399 446.353,145.899 452.5,145C 453.416,144.722 454.082,144.222 454.5,143.5C 455.525,143.897 455.692,144.563 455,145.5C 454.051,147.093 452.885,148.426 451.5,149.5C 451.5,148.5 451.5,147.5 451.5,146.5C 450.167,146.5 448.833,146.5 447.5,146.5C 443.119,146.628 438.785,146.295 434.5,145.5C 434.5,144.833 434.5,144.167 434.5,143.5 Z"/></g>
<g><path style="opacity:1" fill="#ee602d" d="M 434.5,145.5 C 438.785,146.295 443.119,146.628 447.5,146.5C 448.806,147.467 449.473,148.801 449.5,150.5C 446.955,150.151 444.955,150.984 443.5,153C 438.5,153.333 433.5,153.667 428.5,154C 427.944,154.383 427.611,154.883 427.5,155.5C 426.167,155.5 424.833,155.5 423.5,155.5C 423.389,154.883 423.056,154.383 422.5,154C 420.19,153.503 417.857,153.337 415.5,153.5C 414.022,153.762 412.689,153.429 411.5,152.5C 412.853,151.476 413.52,150.143 413.5,148.5C 411.5,148.5 409.5,148.5 407.5,148.5C 407.682,146.409 407.348,144.409 406.5,142.5C 407.667,142.167 408.833,141.833 410,141.5C 413.605,141.584 414.105,142.584 411.5,144.5C 412.868,145.594 414.035,145.26 415,143.5C 421.211,145.434 427.711,146.101 434.5,145.5 Z"/></g>
<g><path style="opacity:1" fill="#6a3a21" d="M 129.5,132.5 C 129.171,146.677 129.504,160.677 130.5,174.5C 130.5,175.5 130.5,176.5 130.5,177.5C 129.778,177.082 129.278,176.416 129,175.5C 128.406,171.679 127.906,167.845 127.5,164C 128.666,157.005 128.666,150.172 127.5,143.5C 127.5,141.833 127.5,140.167 127.5,138.5C 127.025,135.918 127.692,133.918 129.5,132.5 Z"/></g>
<g><path style="opacity:1" fill="#a35937" d="M 130.5,131.5 C 133.167,131.5 135.833,131.5 138.5,131.5C 136.107,132.21 133.607,132.877 131,133.5C 130.173,146.007 130.34,158.34 131.5,170.5C 131.5,171.833 131.5,173.167 131.5,174.5C 131.167,174.5 130.833,174.5 130.5,174.5C 129.504,160.677 129.171,146.677 129.5,132.5C 129.5,131.833 129.833,131.5 130.5,131.5 Z"/></g>
<g><path style="opacity:1" fill="#fbe3cb" d="M 274.5,147.5 C 276.5,148.833 278.5,150.167 280.5,151.5C 281.167,152.5 281.833,153.5 282.5,154.5C 278.544,153.539 275.877,151.205 274.5,147.5 Z"/></g>
<g><path style="opacity:1" fill="#d86e4c" d="M 447.5,146.5 C 448.833,146.5 450.167,146.5 451.5,146.5C 451.5,147.5 451.5,148.5 451.5,149.5C 449.763,151.55 447.763,153.383 445.5,155C 440.845,155.499 436.179,155.666 431.5,155.5C 430.167,155.5 428.833,155.5 427.5,155.5C 427.611,154.883 427.944,154.383 428.5,154C 433.5,153.667 438.5,153.333 443.5,153C 444.955,150.984 446.955,150.151 449.5,150.5C 449.473,148.801 448.806,147.467 447.5,146.5 Z"/></g>
<g><path style="opacity:1" fill="#c27144" d="M 186.5,153.5 C 185.581,156.089 183.914,158.089 181.5,159.5C 181.712,156.288 183.379,154.288 186.5,153.5 Z"/></g>
<g><path style="opacity:1" fill="#f0d2c0" d="M 383.5,167.5 C 382.542,167.047 381.708,166.381 381,165.5C 380.782,162.574 380.282,159.74 379.5,157C 373.449,156.254 367.449,156.421 361.5,157.5C 361.178,153.561 362.511,152.728 365.5,155C 371.491,155.499 377.491,155.666 383.5,155.5C 383.5,159.5 383.5,163.5 383.5,167.5 Z"/></g>
<g><path style="opacity:1" fill="#fbdebd" d="M 423.5,155.5 C 423.5,158.833 423.5,162.167 423.5,165.5C 423.167,165.5 422.833,165.5 422.5,165.5C 422.5,162.5 422.5,159.5 422.5,156.5C 420.167,156.5 417.833,156.5 415.5,156.5C 415.5,159.5 415.5,162.5 415.5,165.5C 414.833,165.5 414.167,165.5 413.5,165.5C 413.5,162.5 413.5,159.5 413.5,156.5C 416.625,155.521 419.958,155.187 423.5,155.5 Z"/></g>
<g><path style="opacity:1" fill="#f9faf2" d="M 422.5,165.5 C 420.167,165.5 417.833,165.5 415.5,165.5C 415.5,162.5 415.5,159.5 415.5,156.5C 417.833,156.5 420.167,156.5 422.5,156.5C 422.5,159.5 422.5,162.5 422.5,165.5 Z"/></g>
<g><path style="opacity:1" fill="#d26a47" d="M 423.5,155.5 C 424.833,155.5 426.167,155.5 427.5,155.5C 427.5,159.5 427.5,163.5 427.5,167.5C 426.167,167.5 424.833,167.5 423.5,167.5C 423.5,166.833 423.5,166.167 423.5,165.5C 423.5,162.167 423.5,158.833 423.5,155.5 Z"/></g>
<g><path style="opacity:1" fill="#fdf0d9" d="M 400.5,155.5 C 402.833,155.5 405.167,155.5 407.5,155.5C 409.273,158.488 409.94,161.821 409.5,165.5C 406.5,165.5 403.5,165.5 400.5,165.5C 400.5,162.167 400.5,158.833 400.5,155.5 Z"/></g>
<g><path style="opacity:1" fill="#c0704d" d="M 289.5,159.5 C 292.548,161.033 295.215,163.2 297.5,166C 298.448,166.483 299.448,166.649 300.5,166.5C 300.5,167.5 300.5,168.5 300.5,169.5C 296.229,166.899 292.563,163.566 289.5,159.5 Z"/></g>
<g><path style="opacity:1" fill="#f7ba9a" d="M 407.5,155.5 C 408.791,155.263 409.791,155.596 410.5,156.5C 410.81,159.713 410.477,162.713 409.5,165.5C 409.94,161.821 409.273,158.488 407.5,155.5 Z"/></g>
<g><path style="opacity:1" fill="#fcdfc3" d="M 427.5,155.5 C 428.833,155.5 430.167,155.5 431.5,155.5C 430.364,157.046 429.698,158.879 429.5,161C 430.051,163.477 430.051,165.81 429.5,168C 413.994,168.828 398.661,168.661 383.5,167.5C 388.833,167.5 394.167,167.5 399.5,167.5C 404.167,167.5 408.833,167.5 413.5,167.5C 416.833,167.5 420.167,167.5 423.5,167.5C 424.833,167.5 426.167,167.5 427.5,167.5C 427.5,163.5 427.5,159.5 427.5,155.5 Z"/></g>
<g><path style="opacity:1" fill="#d16c42" d="M 364.5,152.5 C 371.82,153.166 379.153,153.833 386.5,154.5C 393.48,154.817 400.48,154.483 407.5,153.5C 410.328,154.497 412.995,154.497 415.5,153.5C 417.857,153.337 420.19,153.503 422.5,154C 423.056,154.383 423.389,154.883 423.5,155.5C 419.958,155.187 416.625,155.521 413.5,156.5C 412.5,156.5 411.5,156.5 410.5,156.5C 409.791,155.596 408.791,155.263 407.5,155.5C 405.167,155.5 402.833,155.5 400.5,155.5C 399.517,159.298 399.183,163.298 399.5,167.5C 394.167,167.5 388.833,167.5 383.5,167.5C 383.5,163.5 383.5,159.5 383.5,155.5C 377.491,155.666 371.491,155.499 365.5,155C 362.511,152.728 361.178,153.561 361.5,157.5C 360.313,159.072 359.313,160.739 358.5,162.5C 358.335,159.482 358.502,156.482 359,153.5C 360.699,152.594 362.533,152.261 364.5,152.5 Z"/></g>
<g><path style="opacity:1" fill="#fee9cc" d="M 387.5,155.5 C 390.5,155.5 393.5,155.5 396.5,155.5C 396.5,158.833 396.5,162.167 396.5,165.5C 393.5,165.5 390.5,165.5 387.5,165.5C 387.5,162.167 387.5,158.833 387.5,155.5 Z"/></g>
<g><path style="opacity:1" fill="#fafaf5" d="M 389.5,156.5 C 391.5,156.5 393.5,156.5 395.5,156.5C 395.5,159.167 395.5,161.833 395.5,164.5C 388.966,164.7 386.966,162.034 389.5,156.5 Z"/></g>
<g><path style="opacity:1" fill="#cb6f58" d="M 400.5,155.5 C 400.5,158.833 400.5,162.167 400.5,165.5C 403.5,165.5 406.5,165.5 409.5,165.5C 410.477,162.713 410.81,159.713 410.5,156.5C 411.5,156.5 412.5,156.5 413.5,156.5C 413.5,159.5 413.5,162.5 413.5,165.5C 413.5,166.167 413.5,166.833 413.5,167.5C 408.833,167.5 404.167,167.5 399.5,167.5C 399.183,163.298 399.517,159.298 400.5,155.5 Z"/></g>
<g><path style="opacity:1" fill="#fafaf9" d="M 402.5,157.5 C 407.328,157.385 408.661,159.552 406.5,164C 405.216,164.684 404.049,164.517 403,163.5C 402.505,161.527 402.338,159.527 402.5,157.5 Z"/></g>
<g><path style="opacity:1" fill="#e2a27c" d="M 387.5,155.5 C 387.5,158.833 387.5,162.167 387.5,165.5C 390.5,165.5 393.5,165.5 396.5,165.5C 393.375,166.479 390.042,166.813 386.5,166.5C 386.185,162.629 386.518,158.962 387.5,155.5 Z"/></g>
<g><path style="opacity:1" fill="#ac7651" d="M 413.5,165.5 C 414.167,165.5 414.833,165.5 415.5,165.5C 417.833,165.5 420.167,165.5 422.5,165.5C 422.833,165.5 423.167,165.5 423.5,165.5C 423.5,166.167 423.5,166.833 423.5,167.5C 420.167,167.5 416.833,167.5 413.5,167.5C 413.5,166.833 413.5,166.167 413.5,165.5 Z"/></g>
<g><path style="opacity:1" fill="#faf3e5" d="M 215.5,122.5 C 214.165,126.417 212.331,130.084 210,133.5C 209.667,135.833 209.333,138.167 209,140.5C 207.869,141.604 207.035,141.271 206.5,139.5C 207.428,138.232 207.595,136.899 207,135.5C 205.812,136.563 205.312,137.897 205.5,139.5C 204.178,139.33 203.011,139.663 202,140.5C 196.287,147.507 190.62,154.507 185,161.5C 180.111,164.059 177.111,168.059 176,173.5C 174.412,171.032 172.578,170.866 170.5,173C 169.734,177.367 167.234,180.201 163,181.5C 162.29,180.027 161.124,179.36 159.5,179.5C 160.5,178.167 161.5,176.833 162.5,175.5C 166.325,172.523 170.325,169.689 174.5,167C 177.087,164.919 179.087,162.419 180.5,159.5C 180.833,159.5 181.167,159.5 181.5,159.5C 183.914,158.089 185.581,156.089 186.5,153.5C 190.159,150.211 193.826,146.878 197.5,143.5C 200.826,139.172 204.16,134.839 207.5,130.5C 210.527,128.14 213.194,125.473 215.5,122.5 Z"/></g>
<g><path style="opacity:1" fill="#c7673c" d="M 180.5,159.5 C 179.087,162.419 177.087,164.919 174.5,167C 170.325,169.689 166.325,172.523 162.5,175.5C 164.541,172.267 166.874,169.1 169.5,166C 171.101,165.727 172.601,165.227 174,164.5C 173.591,162.775 173.758,161.108 174.5,159.5C 175.167,160.167 175.833,160.833 176.5,161.5C 177.622,160.37 178.956,159.703 180.5,159.5 Z"/></g>
<g><path style="opacity:1" fill="#544d47" d="M 40.5,131.5 C 41.4957,144.99 41.829,158.656 41.5,172.5C 43.2624,172.643 44.9291,172.309 46.5,171.5C 47.1667,158.006 47.8333,144.673 48.5,131.5C 48.5,131.833 48.5,132.167 48.5,132.5C 48.5,145.5 48.5,158.5 48.5,171.5C 50.2731,180.718 50.9398,190.051 50.5,199.5C 50.5,213.167 50.5,226.833 50.5,240.5C 50.5,240.833 50.5,241.167 50.5,241.5C 49.8333,227.661 49.1667,213.661 48.5,199.5C 45.9923,197.728 44.9923,195.228 45.5,192C 46.1651,186.518 46.4985,181.018 46.5,175.5C 44.8333,175.5 43.1667,175.5 41.5,175.5C 41.6664,183.174 41.4997,190.841 41,198.5C 40.3292,199.252 39.4959,199.586 38.5,199.5C 38.5,199.167 38.5,198.833 38.5,198.5C 38.2689,190.791 38.6022,183.124 39.5,175.5C 40.496,161.01 40.8293,146.343 40.5,131.5 Z"/></g>
<g><path style="opacity:1" fill="#fbc2a1" d="M 425.5,171.5 C 427.735,171.205 429.735,171.539 431.5,172.5C 413.659,172.17 395.992,172.503 378.5,173.5C 378.167,173.5 377.833,173.5 377.5,173.5C 377.167,173.5 376.833,173.5 376.5,173.5C 376.611,172.883 376.944,172.383 377.5,172C 393.497,171.5 409.497,171.333 425.5,171.5 Z"/></g>
<g><path style="opacity:1" fill="#fdeee0" d="M 361.5,157.5 C 361.664,160.187 361.497,162.854 361,165.5C 360.667,164.833 360.333,164.167 360,163.5C 359.812,167.723 358.979,171.723 357.5,175.5C 363.877,176.47 369.543,174.97 374.5,171C 391.672,170.172 408.672,170.338 425.5,171.5C 409.497,171.333 393.497,171.5 377.5,172C 376.944,172.383 376.611,172.883 376.5,173.5C 373.673,174.958 370.673,175.958 367.5,176.5C 363.176,176.927 358.842,177.261 354.5,177.5C 355.527,172.437 356.861,167.437 358.5,162.5C 359.313,160.739 360.313,159.072 361.5,157.5 Z"/></g>
<g><path style="opacity:1" fill="#cb6534" d="M 378.5,173.5 C 395.992,172.503 413.659,172.17 431.5,172.5C 431.5,172.833 431.5,173.167 431.5,173.5C 429.334,173.579 427.334,174.246 425.5,175.5C 424.167,174.833 422.833,174.167 421.5,173.5C 419.666,174.754 417.666,175.421 415.5,175.5C 413.369,174.686 411.036,174.186 408.5,174C 398.506,173.5 388.506,173.334 378.5,173.5 Z"/></g>
<g><path style="opacity:1" fill="#e7612e" d="M 377.5,173.5 C 377.833,173.5 378.167,173.5 378.5,173.5C 388.506,173.334 398.506,173.5 408.5,174C 411.036,174.186 413.369,174.686 415.5,175.5C 410.575,177.136 405.575,177.97 400.5,178C 404.667,180.838 404.333,183.004 399.5,184.5C 403.833,185.833 408.167,185.833 412.5,184.5C 411.263,183.719 410.263,182.719 409.5,181.5C 411.396,180.534 413.396,180.201 415.5,180.5C 415.238,181.978 415.571,183.311 416.5,184.5C 418.643,183.246 420.643,183.246 422.5,184.5C 419.687,184.025 417.687,185.025 416.5,187.5C 415.512,192.64 415.179,197.974 415.5,203.5C 413.219,203.923 411.552,203.256 410.5,201.5C 410.5,196.833 410.5,192.167 410.5,187.5C 407.038,186.518 403.371,186.185 399.5,186.5C 399.179,191.695 399.513,196.695 400.5,201.5C 399.9,202.9 398.9,203.9 397.5,204.5C 396.5,204.5 395.5,204.5 394.5,204.5C 394.5,203.167 394.5,201.833 394.5,200.5C 395.306,196.998 395.973,193.331 396.5,189.5C 396.028,186.03 394.028,184.363 390.5,184.5C 387.399,186.019 384.066,186.685 380.5,186.5C 380.811,185.522 381.478,184.855 382.5,184.5C 384.263,185.954 385.597,185.62 386.5,183.5C 385.675,182.614 384.675,182.281 383.5,182.5C 383.5,180.833 383.5,179.167 383.5,177.5C 385.262,177.357 386.929,177.691 388.5,178.5C 389.5,178.167 390.167,177.5 390.5,176.5C 386.188,174.927 381.854,174.593 377.5,175.5C 377.5,174.833 377.5,174.167 377.5,173.5 Z"/></g>
<g><path style="opacity:1" fill="#d76843" d="M 431.5,173.5 C 434.33,173.694 436.996,174.361 439.5,175.5C 441.102,177.074 443.102,177.741 445.5,177.5C 446.833,177.5 448.167,177.5 449.5,177.5C 451.265,178.461 453.265,178.795 455.5,178.5C 447.637,180.199 439.971,179.199 432.5,175.5C 431.702,175.043 431.369,174.376 431.5,173.5 Z"/></g>
<g><path style="opacity:1" fill="#c36d47" d="M 300.5,169.5 C 302.827,169.247 304.827,169.914 306.5,171.5C 310.488,176.488 314.821,181.154 319.5,185.5C 312.231,181.353 305.898,176.02 300.5,169.5 Z"/></g>
<g><path style="opacity:1" fill="#d46b45" d="M 376.5,173.5 C 376.833,173.5 377.167,173.5 377.5,173.5C 377.5,174.167 377.5,174.833 377.5,175.5C 372.922,178.133 367.922,179.133 362.5,178.5C 364.167,177.833 365.833,177.167 367.5,176.5C 370.673,175.958 373.673,174.958 376.5,173.5 Z"/></g>
<g><path style="opacity:1" fill="#ee5f2c" d="M 380.5,186.5 C 377.833,186.5 375.167,186.5 372.5,186.5C 372.616,183.09 370.95,181.756 367.5,182.5C 367.5,184.167 367.5,185.833 367.5,187.5C 363.243,187.252 359.243,186.252 355.5,184.5C 354.847,183.193 354.18,181.86 353.5,180.5C 356.306,179.832 358.972,179.166 361.5,178.5C 361.833,178.5 362.167,178.5 362.5,178.5C 367.922,179.133 372.922,178.133 377.5,175.5C 381.854,174.593 386.188,174.927 390.5,176.5C 390.167,177.5 389.5,178.167 388.5,178.5C 386.929,177.691 385.262,177.357 383.5,177.5C 383.5,179.167 383.5,180.833 383.5,182.5C 384.675,182.281 385.675,182.614 386.5,183.5C 385.597,185.62 384.263,185.954 382.5,184.5C 381.478,184.855 380.811,185.522 380.5,186.5 Z"/></g>
<g><path style="opacity:1" fill="#e9b28d" d="M 439.5,175.5 C 441.898,175.259 443.898,175.926 445.5,177.5C 443.102,177.741 441.102,177.074 439.5,175.5 Z"/></g>
<g><path style="opacity:1" fill="#da9e7e" d="M 367.5,176.5 C 365.833,177.167 364.167,177.833 362.5,178.5C 362.167,178.5 361.833,178.5 361.5,178.5C 358.941,178.802 356.607,178.468 354.5,177.5C 358.842,177.261 363.176,176.927 367.5,176.5 Z"/></g>
<g><path style="opacity:1" fill="#cd8166" d="M 461.5,175.5 C 461.741,178.034 460.741,179.7 458.5,180.5C 458.179,178.952 457.179,178.285 455.5,178.5C 453.265,178.795 451.265,178.461 449.5,177.5C 453.705,177.809 457.705,177.143 461.5,175.5 Z"/></g>
<g><path style="opacity:1" fill="#cf6c42" d="M 358.5,162.5 C 356.861,167.437 355.527,172.437 354.5,177.5C 356.607,178.468 358.941,178.802 361.5,178.5C 358.972,179.166 356.306,179.832 353.5,180.5C 354.18,181.86 354.847,183.193 355.5,184.5C 353.856,183.634 352.189,183.134 350.5,183C 348.248,185.736 346.248,188.569 344.5,191.5C 345.423,187.288 346.757,183.288 348.5,179.5C 349.833,179.5 351.167,179.5 352.5,179.5C 352.526,173.119 354.526,167.453 358.5,162.5 Z"/></g>
<g><path style="opacity:1" fill="#f7c9ad" d="M 130.5,174.5 C 130.833,174.5 131.167,174.5 131.5,174.5C 131.5,174.833 131.5,175.167 131.5,175.5C 132.441,177.05 133.107,178.716 133.5,180.5C 133.167,180.5 132.833,180.5 132.5,180.5C 132.167,180.5 131.833,180.5 131.5,180.5C 131.737,179.209 131.404,178.209 130.5,177.5C 130.5,176.5 130.5,175.5 130.5,174.5 Z"/></g>
<g><path style="opacity:1" fill="#eb612c" d="M 431.5,173.5 C 431.369,174.376 431.702,175.043 432.5,175.5C 439.971,179.199 447.637,180.199 455.5,178.5C 457.179,178.285 458.179,178.952 458.5,180.5C 458.5,180.833 458.5,181.167 458.5,181.5C 454.73,182.05 452.063,184.05 450.5,187.5C 444.355,188.49 438.022,188.823 431.5,188.5C 431.5,189.5 431.5,190.5 431.5,191.5C 430.399,190.152 429.399,188.652 428.5,187C 426.155,186.764 424.155,185.93 422.5,184.5C 420.643,183.246 418.643,183.246 416.5,184.5C 415.571,183.311 415.238,181.978 415.5,180.5C 413.396,180.201 411.396,180.534 409.5,181.5C 410.263,182.719 411.263,183.719 412.5,184.5C 408.167,185.833 403.833,185.833 399.5,184.5C 404.333,183.004 404.667,180.838 400.5,178C 405.575,177.97 410.575,177.136 415.5,175.5C 417.666,175.421 419.666,174.754 421.5,173.5C 422.833,174.167 424.167,174.833 425.5,175.5C 427.334,174.246 429.334,173.579 431.5,173.5 Z"/></g>
<g><path style="opacity:1" fill="#a4dbe4" d="M 60.5,182.5 C 61.791,182.263 62.791,182.596 63.5,183.5C 63.5,184.5 63.5,185.5 63.5,186.5C 67.3109,187.454 68.3109,189.787 66.5,193.5C 63.1979,196.049 59.5312,196.882 55.5,196C 54.0551,189.266 53.0551,182.433 52.5,175.5C 54.1667,175.5 55.8333,175.5 57.5,175.5C 57.3379,177.527 57.5045,179.527 58,181.5C 58.6708,182.252 59.5041,182.586 60.5,182.5 Z"/></g>
<g><path style="opacity:1" fill="#c26d46" d="M 162.5,175.5 C 161.5,176.833 160.5,178.167 159.5,179.5C 155.334,182.417 151.001,185.084 146.5,187.5C 149.494,184.953 152.16,181.953 154.5,178.5C 157.167,177.366 159.833,176.366 162.5,175.5 Z"/></g>
<g><path style="opacity:1" fill="#cf664e" d="M 458.5,181.5 C 456.23,183.975 453.563,185.975 450.5,187.5C 452.063,184.05 454.73,182.05 458.5,181.5 Z"/></g>
<g><path style="opacity:1" fill="#bb6d47" d="M 131.5,175.5 C 133.193,176.475 134.693,177.808 136,179.5C 137.249,183.871 139.083,187.871 141.5,191.5C 141.167,191.5 140.833,191.5 140.5,191.5C 137.917,188.003 135.584,184.336 133.5,180.5C 133.107,178.716 132.441,177.05 131.5,175.5 Z"/></g>
<g><path style="opacity:1" fill="#b2d6da" d="M 48.5,171.5 C 50.1992,171.34 51.8659,171.506 53.5,172C 58.7032,173.57 61.0365,177.07 60.5,182.5C 59.5041,182.586 58.6708,182.252 58,181.5C 57.5045,179.527 57.3379,177.527 57.5,175.5C 55.8333,175.5 54.1667,175.5 52.5,175.5C 53.0551,182.433 54.0551,189.266 55.5,196C 59.5312,196.882 63.1979,196.049 66.5,193.5C 68.3109,189.787 67.3109,187.454 63.5,186.5C 63.5,185.5 63.5,184.5 63.5,183.5C 65.9032,183.393 67.7365,184.393 69,186.5C 70.0349,191.738 68.2015,195.571 63.5,198C 59.3123,198.176 55.3123,198.676 51.5,199.5C 51.1667,199.5 50.8333,199.5 50.5,199.5C 50.9398,190.051 50.2731,180.718 48.5,171.5 Z"/></g>
<g><path style="opacity:1" fill="#f9f7f0" d="M 132.5,180.5 C 132.833,180.5 133.167,180.5 133.5,180.5C 135.584,184.336 137.917,188.003 140.5,191.5C 140.586,192.496 140.252,193.329 139.5,194C 137.308,194.926 135.308,196.093 133.5,197.5C 132.511,192.025 132.178,186.358 132.5,180.5 Z"/></g>
<g><path style="opacity:1" fill="#da6538" d="M 380.5,186.5 C 384.066,186.685 387.399,186.019 390.5,184.5C 394.028,184.363 396.028,186.03 396.5,189.5C 395.973,193.331 395.306,196.998 394.5,200.5C 394.818,195.968 394.485,191.634 393.5,187.5C 389.671,186.931 386.337,187.598 383.5,189.5C 383.5,190.167 383.5,190.833 383.5,191.5C 383.187,195.042 383.521,198.375 384.5,201.5C 384.611,202.117 384.944,202.617 385.5,203C 383.527,203.495 381.527,203.662 379.5,203.5C 380.108,198.056 379.442,193.056 377.5,188.5C 371.108,188.751 364.775,188.418 358.5,187.5C 357.167,186.833 356.167,185.833 355.5,184.5C 359.243,186.252 363.243,187.252 367.5,187.5C 367.5,185.833 367.5,184.167 367.5,182.5C 370.95,181.756 372.616,183.09 372.5,186.5C 375.167,186.5 377.833,186.5 380.5,186.5 Z"/></g>
<g><path style="opacity:1" fill="#aad9e1" d="M 39.5,175.5 C 38.6022,183.124 38.2689,190.791 38.5,198.5C 31.4684,198.83 24.4684,198.497 17.5,197.5C 15.8513,196.352 14.3513,195.019 13,193.5C 11.814,187.34 14.314,183.506 20.5,182C 24.9798,174.796 31.3131,172.629 39.5,175.5 Z"/></g>
<g><path style="opacity:1" fill="#eeb896" d="M 358.5,187.5 C 364.775,188.418 371.108,188.751 377.5,188.5C 377.5,188.833 377.5,189.167 377.5,189.5C 371.833,189.5 366.167,189.5 360.5,189.5C 359.5,189.167 358.833,188.5 358.5,187.5 Z"/></g>
<g><path style="opacity:1" fill="#ca7146" d="M 319.5,185.5 C 323.055,186.054 325.388,188.054 326.5,191.5C 324.405,190.588 322.405,189.421 320.5,188C 319.748,187.329 319.414,186.496 319.5,185.5 Z"/></g>
<g><path style="opacity:1" fill="#fafbf8" d="M 355.5,184.5 C 356.167,185.833 357.167,186.833 358.5,187.5C 358.833,188.5 359.5,189.167 360.5,189.5C 365.172,190.027 369.839,191.027 374.5,192.5C 375.447,194.059 376.113,195.726 376.5,197.5C 375.673,200.783 375.34,204.116 375.5,207.5C 374.167,207.5 373.5,208.167 373.5,209.5C 372.432,210.434 371.099,210.768 369.5,210.5C 367.698,209.542 365.698,208.875 363.5,208.5C 355.915,204.86 347.915,202.194 339.5,200.5C 340.925,199.078 341.925,197.411 342.5,195.5C 343.167,194.167 343.833,192.833 344.5,191.5C 346.248,188.569 348.248,185.736 350.5,183C 352.189,183.134 353.856,183.634 355.5,184.5 Z"/></g>
<g><path style="opacity:1" fill="#8a8783" d="M 131.5,180.5 C 131.833,180.5 132.167,180.5 132.5,180.5C 132.178,186.358 132.511,192.025 133.5,197.5C 133.5,198.167 133.167,198.5 132.5,198.5C 131.566,197.432 131.232,196.099 131.5,194.5C 131.5,189.833 131.5,185.167 131.5,180.5 Z"/></g>
<g><path style="opacity:1" fill="#db6b41" d="M 422.5,184.5 C 424.155,185.93 426.155,186.764 428.5,187C 429.399,188.652 430.399,190.152 431.5,191.5C 431.5,195.5 431.5,199.5 431.5,203.5C 429.219,203.923 427.552,203.256 426.5,201.5C 426.5,196.833 426.5,192.167 426.5,187.5C 423.167,187.5 419.833,187.5 416.5,187.5C 417.687,185.025 419.687,184.025 422.5,184.5 Z"/></g>
<g><path style="opacity:1" fill="#514338" d="M 122.5,143.5 C 124.167,143.5 125.833,143.5 127.5,143.5C 128.666,150.172 128.666,157.005 127.5,164C 127.906,167.845 128.406,171.679 129,175.5C 129.278,176.416 129.778,177.082 130.5,177.5C 131.404,178.209 131.737,179.209 131.5,180.5C 131.5,185.167 131.5,189.833 131.5,194.5C 130.027,195.072 128.693,195.905 127.5,197C 128.849,197.772 129.682,198.939 130,200.5C 130.5,218.83 130.667,237.164 130.5,255.5C 129.5,255.5 128.5,255.5 127.5,255.5C 127.5,254.5 127.5,253.5 127.5,252.5C 125.856,252.714 124.356,252.38 123,251.5C 121.492,227.532 120.658,203.532 120.5,179.5C 122.364,167.616 123.031,155.616 122.5,143.5 Z"/></g>
<g><path style="opacity:1" fill="#c86337" d="M 344.5,191.5 C 343.833,192.833 343.167,194.167 342.5,195.5C 338.6,198.19 334.933,197.857 331.5,194.5C 334.187,194.664 336.854,194.497 339.5,194C 340.653,192.117 342.319,191.284 344.5,191.5 Z"/></g>
<g><path style="opacity:1" fill="#ce8a71" d="M 410.5,187.5 C 407.167,187.5 403.833,187.5 400.5,187.5C 400.5,192.167 400.5,196.833 400.5,201.5C 399.513,196.695 399.179,191.695 399.5,186.5C 403.371,186.185 407.038,186.518 410.5,187.5 Z"/></g>
<g><path style="opacity:1" fill="#fecab3" d="M 416.5,187.5 C 419.833,187.5 423.167,187.5 426.5,187.5C 426.5,192.167 426.5,196.833 426.5,201.5C 426.167,201.5 425.833,201.5 425.5,201.5C 425.5,197.167 425.5,192.833 425.5,188.5C 422.833,188.5 420.167,188.5 417.5,188.5C 417.5,192.833 417.5,197.167 417.5,201.5C 416.514,197.03 416.181,192.363 416.5,187.5 Z"/></g>
<g><path style="opacity:1" fill="#fbfaf5" d="M 425.5,201.5 C 422.833,201.5 420.167,201.5 417.5,201.5C 417.5,197.167 417.5,192.833 417.5,188.5C 420.167,188.5 422.833,188.5 425.5,188.5C 425.5,192.833 425.5,197.167 425.5,201.5 Z"/></g>
<g><path style="opacity:1" fill="#e5f3f5" d="M 253.5,191.5 C 250.144,193.599 246.644,195.599 243,197.5C 244.524,193.566 245.69,189.399 246.5,185C 246.167,184.167 245.833,183.333 245.5,182.5C 241.75,185.655 239.25,189.655 238,194.5C 237.654,191.424 236.988,188.424 236,185.5C 232.738,192.47 230.738,199.803 230,207.5C 226.696,202.557 224.196,197.224 222.5,191.5C 224.504,192.673 226.004,194.34 227,196.5C 228.008,196.018 229.175,195.852 230.5,196C 231.785,192.418 232.452,188.918 232.5,185.5C 234.452,183.467 236.618,183.134 239,184.5C 240.743,181.958 242.743,179.625 245,177.5C 246.448,180.134 247.615,183.301 248.5,187C 248.034,188.299 248.034,189.799 248.5,191.5C 250.167,191.5 251.833,191.5 253.5,191.5 Z"/></g>
<g><path style="opacity:1" fill="#d09e8a" d="M 326.5,191.5 C 328.434,192.11 330.101,193.11 331.5,194.5C 334.933,197.857 338.6,198.19 342.5,195.5C 341.925,197.411 340.925,199.078 339.5,200.5C 335.136,198.656 331.136,196.323 327.5,193.5C 327.167,192.833 326.833,192.167 326.5,191.5 Z"/></g>
<g><path style="opacity:1" fill="#315d71" d="M 222.5,191.5 C 224.196,197.224 226.696,202.557 230,207.5C 230.738,199.803 232.738,192.47 236,185.5C 236.988,188.424 237.654,191.424 238,194.5C 239.25,189.655 241.75,185.655 245.5,182.5C 245.833,183.333 246.167,184.167 246.5,185C 245.69,189.399 244.524,193.566 243,197.5C 246.644,195.599 250.144,193.599 253.5,191.5C 261.069,187.81 268.902,184.81 277,182.5C 280.763,182.865 284.263,184.032 287.5,186C 290.99,188.911 294.656,191.578 298.5,194C 300.259,194.798 301.926,194.631 303.5,193.5C 301.649,190.375 301.149,187.042 302,183.5C 306.975,186.975 311.809,190.641 316.5,194.5C 316.755,192.657 316.922,190.657 317,188.5C 320.324,190.579 323.824,192.246 327.5,193.5C 331.136,196.323 335.136,198.656 339.5,200.5C 347.915,202.194 355.915,204.86 363.5,208.5C 363.062,208.435 362.728,208.601 362.5,209C 363.167,209.333 363.833,209.667 364.5,210C 360.54,211.025 356.54,211.859 352.5,212.5C 349.389,210.815 346.056,210.315 342.5,211C 340.357,215.711 341.691,218.877 346.5,220.5C 347.922,221.925 349.589,222.925 351.5,223.5C 352.348,225.093 353.681,226.26 355.5,227C 360.155,227.499 364.821,227.666 369.5,227.5C 369.5,231.5 369.5,235.5 369.5,239.5C 364.706,238.903 360.373,239.57 356.5,241.5C 356.5,245.5 356.5,249.5 356.5,253.5C 300.319,253.181 244.152,253.514 188,254.5C 172.677,254.208 157.51,253.208 142.5,251.5C 140.712,252.283 139.712,253.616 139.5,255.5C 137.167,255.5 134.833,255.5 132.5,255.5C 132.5,236.5 132.5,217.5 132.5,198.5C 133.167,198.5 133.5,198.167 133.5,197.5C 135.308,196.093 137.308,194.926 139.5,194C 140.252,193.329 140.586,192.496 140.5,191.5C 140.833,191.5 141.167,191.5 141.5,191.5C 143.03,190.789 144.363,189.789 145.5,188.5C 146.152,189.725 147.319,190.392 149,190.5C 152.473,189.837 155.973,189.504 159.5,189.5C 159.52,193.587 159.353,197.587 159,201.5C 165.7,193.227 174.2,190.227 184.5,192.5C 182.77,194.793 181.437,197.293 180.5,200C 185.094,198.12 189.261,195.287 193,191.5C 191.667,196.167 190.333,200.833 189,205.5C 197.773,194.951 208.106,186.284 220,179.5C 220.333,182.833 220.667,186.167 221,189.5C 221.278,190.416 221.778,191.082 222.5,191.5 Z"/></g>
<g><path style="opacity:1" fill="#f9d7c2" d="M 393.5,187.5 C 393.5,192.167 393.5,196.833 393.5,201.5C 390.5,201.5 387.5,201.5 384.5,201.5C 383.521,198.375 383.187,195.042 383.5,191.5C 384.477,194.287 384.81,197.287 384.5,200.5C 387.119,200.768 389.619,200.435 392,199.5C 392.499,195.848 392.665,192.182 392.5,188.5C 389.391,188.264 386.391,188.597 383.5,189.5C 386.337,187.598 389.671,186.931 393.5,187.5 Z"/></g>
<g><path style="opacity:1" fill="#fdd7c2" d="M 410.5,187.5 C 410.5,192.167 410.5,196.833 410.5,201.5C 407.167,201.5 403.833,201.5 400.5,201.5C 400.5,196.833 400.5,192.167 400.5,187.5C 403.833,187.5 407.167,187.5 410.5,187.5 Z"/></g>
<g><path style="opacity:1" fill="#fdf8ef" d="M 401.5,188.5 C 404.167,188.5 406.833,188.5 409.5,188.5C 409.5,192.5 409.5,196.5 409.5,200.5C 406.833,200.5 404.167,200.5 401.5,200.5C 401.5,196.5 401.5,192.5 401.5,188.5 Z"/></g>
<g><path style="opacity:1" fill="#bc7754" d="M 416.5,187.5 C 416.181,192.363 416.514,197.03 417.5,201.5C 420.167,201.5 422.833,201.5 425.5,201.5C 425.833,201.5 426.167,201.5 426.5,201.5C 427.552,203.256 429.219,203.923 431.5,203.5C 420.346,204.495 409.012,204.828 397.5,204.5C 398.9,203.9 399.9,202.9 400.5,201.5C 403.833,201.5 407.167,201.5 410.5,201.5C 411.552,203.256 413.219,203.923 415.5,203.5C 415.179,197.974 415.512,192.64 416.5,187.5 Z"/></g>
<g><path style="opacity:1" fill="#cd7f66" d="M 393.5,187.5 C 394.485,191.634 394.818,195.968 394.5,200.5C 394.5,201.833 394.5,203.167 394.5,204.5C 389.167,204.5 383.833,204.5 378.5,204.5C 378.821,199.305 378.487,194.305 377.5,189.5C 377.5,189.167 377.5,188.833 377.5,188.5C 379.442,193.056 380.108,198.056 379.5,203.5C 381.527,203.662 383.527,203.495 385.5,203C 384.944,202.617 384.611,202.117 384.5,201.5C 387.5,201.5 390.5,201.5 393.5,201.5C 393.5,196.833 393.5,192.167 393.5,187.5 Z"/></g>
<g><path style="opacity:1" fill="#fbfaf0" d="M 383.5,191.5 C 383.5,190.833 383.5,190.167 383.5,189.5C 386.391,188.597 389.391,188.264 392.5,188.5C 392.665,192.182 392.499,195.848 392,199.5C 389.619,200.435 387.119,200.768 384.5,200.5C 384.81,197.287 384.477,194.287 383.5,191.5 Z"/></g>
<g><path style="opacity:1" fill="#fbf1e5" d="M 461.5,175.5 C 462.525,176.374 463.192,177.541 463.5,179C 461.571,180.694 460.571,182.861 460.5,185.5C 461.5,185.5 462.5,185.5 463.5,185.5C 463.5,186.5 463.5,187.5 463.5,188.5C 460.832,188.666 458.498,189.666 456.5,191.5C 450.22,190.889 443.887,190.889 437.5,191.5C 437.012,194.711 437.679,197.544 439.5,200C 439.626,202.234 439.293,204.568 438.5,207C 441.666,208.899 444.666,210.733 447.5,212.5C 445.194,212.007 442.861,211.674 440.5,211.5C 440.167,211.5 439.833,211.5 439.5,211.5C 438.087,210.065 436.42,209.065 434.5,208.5C 415.007,207.503 395.34,207.17 375.5,207.5C 375.34,204.116 375.673,200.783 376.5,197.5C 376.113,195.726 375.447,194.059 374.5,192.5C 369.839,191.027 365.172,190.027 360.5,189.5C 366.167,189.5 371.833,189.5 377.5,189.5C 378.487,194.305 378.821,199.305 378.5,204.5C 383.833,204.5 389.167,204.5 394.5,204.5C 395.5,204.5 396.5,204.5 397.5,204.5C 409.012,204.828 420.346,204.495 431.5,203.5C 431.5,199.5 431.5,195.5 431.5,191.5C 431.5,190.5 431.5,189.5 431.5,188.5C 438.022,188.823 444.355,188.49 450.5,187.5C 453.563,185.975 456.23,183.975 458.5,181.5C 458.5,181.167 458.5,180.833 458.5,180.5C 460.741,179.7 461.741,178.034 461.5,175.5 Z"/></g>
<g><path style="opacity:1" fill="#dbd3ca" d="M 50.5,199.5 C 50.8333,199.5 51.1667,199.5 51.5,199.5C 51.1711,213.01 51.5044,226.344 52.5,239.5C 52.1583,240.338 51.4916,240.672 50.5,240.5C 50.5,226.833 50.5,213.167 50.5,199.5 Z"/></g>
<g><path style="opacity:1" fill="#505351" d="M 120.5,179.5 C 120.658,203.532 121.492,227.532 123,251.5C 124.356,252.38 125.856,252.714 127.5,252.5C 127.5,253.5 127.5,254.5 127.5,255.5C 125.167,255.5 122.833,255.5 120.5,255.5C 119.561,239.528 119.228,223.528 119.5,207.5C 117.833,207.5 116.167,207.5 114.5,207.5C 115.78,206.069 117.447,205.402 119.5,205.5C 119.174,196.651 119.507,187.984 120.5,179.5 Z"/></g>
<g><path style="opacity:1" fill="#ffd7c3" d="M 375.5,207.5 C 395.34,207.17 415.007,207.503 434.5,208.5C 414.121,208.19 393.787,208.523 373.5,209.5C 373.5,208.167 374.167,207.5 375.5,207.5 Z"/></g>
<g><path style="opacity:1" fill="#c06e4f" d="M 434.5,208.5 C 436.42,209.065 438.087,210.065 439.5,211.5C 437.883,210.962 436.216,210.629 434.5,210.5C 434.167,210.5 433.833,210.5 433.5,210.5C 415.005,209.338 396.338,209.171 377.5,210C 373.077,211.885 368.744,213.719 364.5,215.5C 363.5,215.5 362.5,215.5 361.5,215.5C 357.05,215.421 352.717,216.088 348.5,217.5C 349.524,218.852 350.524,220.185 351.5,221.5C 348.054,220.388 346.054,218.055 345.5,214.5C 350.179,214.666 354.845,214.499 359.5,214C 362.457,213.721 365.123,212.887 367.5,211.5C 367.842,210.662 368.508,210.328 369.5,210.5C 371.099,210.768 372.432,210.434 373.5,209.5C 393.787,208.523 414.121,208.19 434.5,208.5 Z"/></g>
<g><path style="opacity:1" fill="#d76435" d="M 433.5,210.5 C 416.83,210.333 400.163,210.5 383.5,211C 377.127,212.403 370.794,213.903 364.5,215.5C 368.744,213.719 373.077,211.885 377.5,210C 396.338,209.171 415.005,209.338 433.5,210.5 Z"/></g>
<g><path style="opacity:1" fill="#4c5660" d="M 363.5,208.5 C 365.698,208.875 367.698,209.542 369.5,210.5C 368.508,210.328 367.842,210.662 367.5,211.5C 359.54,213.312 351.54,213.645 343.5,212.5C 343.016,215.788 344.016,218.455 346.5,220.5C 341.691,218.877 340.357,215.711 342.5,211C 346.056,210.315 349.389,210.815 352.5,212.5C 356.54,211.859 360.54,211.025 364.5,210C 363.833,209.667 363.167,209.333 362.5,209C 362.728,208.601 363.062,208.435 363.5,208.5 Z"/></g>
<g><path style="opacity:1" fill="#e9aa82" d="M 440.5,211.5 C 442.861,211.674 445.194,212.007 447.5,212.5C 447.5,212.833 447.5,213.167 447.5,213.5C 444.848,213.59 442.515,212.924 440.5,211.5 Z"/></g>
<g><path style="opacity:1" fill="#ef6028" d="M 433.5,210.5 C 433.833,210.5 434.167,210.5 434.5,210.5C 434.804,211.15 435.137,211.817 435.5,212.5C 423.5,213.167 411.5,213.833 399.5,214.5C 410.794,214.902 421.96,215.902 433,217.5C 437.414,214.835 442.247,213.835 447.5,214.5C 448.973,216.74 449.973,219.24 450.5,222C 445.737,222.622 444.737,222.455 447.5,221.5C 447.5,220.167 447.5,218.833 447.5,217.5C 426.183,218.404 404.849,218.738 383.5,218.5C 383.5,219.5 383.5,220.5 383.5,221.5C 377.672,221.05 372.005,221.716 366.5,223.5C 366.167,223.167 365.833,222.833 365.5,222.5C 366.167,221.833 366.833,221.167 367.5,220.5C 367,220.167 366.5,219.833 366,219.5C 362.122,218.804 358.289,218.471 354.5,218.5C 356.621,216.982 358.954,215.982 361.5,215.5C 362.5,215.5 363.5,215.5 364.5,215.5C 370.794,213.903 377.127,212.403 383.5,211C 400.163,210.5 416.83,210.333 433.5,210.5 Z"/></g>
<g><path style="opacity:1" fill="#e66132" d="M 434.5,210.5 C 436.216,210.629 437.883,210.962 439.5,211.5C 439.833,211.5 440.167,211.5 440.5,211.5C 442.515,212.924 444.848,213.59 447.5,213.5C 447.5,213.833 447.5,214.167 447.5,214.5C 442.247,213.835 437.414,214.835 433,217.5C 421.96,215.902 410.794,214.902 399.5,214.5C 411.5,213.833 423.5,213.167 435.5,212.5C 435.137,211.817 434.804,211.15 434.5,210.5 Z"/></g>
<g><path style="opacity:1" fill="#d2937f" d="M 463.5,218.5 C 463.5,217.167 463.5,215.833 463.5,214.5C 458.167,214.5 452.833,214.5 447.5,214.5C 447.5,214.167 447.5,213.833 447.5,213.5C 452.844,213.666 458.177,213.499 463.5,213C 464.766,212.691 465.933,212.191 467,211.5C 467.443,214.614 466.276,216.948 463.5,218.5 Z"/></g>
<g><path style="opacity:1" fill="#845a51" d="M 367.5,211.5 C 365.123,212.887 362.457,213.721 359.5,214C 354.845,214.499 350.179,214.666 345.5,214.5C 346.054,218.055 348.054,220.388 351.5,221.5C 351.5,222.167 351.5,222.833 351.5,223.5C 349.589,222.925 347.922,221.925 346.5,220.5C 344.016,218.455 343.016,215.788 343.5,212.5C 351.54,213.645 359.54,213.312 367.5,211.5 Z"/></g>
<g><path style="opacity:1" fill="#315e70" d="M 114.5,207.5 C 116.167,207.5 117.833,207.5 119.5,207.5C 119.228,223.528 119.561,239.528 120.5,255.5C 96.8333,255.5 73.1667,255.5 49.5,255.5C 49.3531,250.786 49.6864,246.119 50.5,241.5C 50.5,241.167 50.5,240.833 50.5,240.5C 51.4916,240.672 52.1583,240.338 52.5,239.5C 61.9009,233.606 70.9009,227.106 79.5,220C 88.0847,216.872 96.7514,214.039 105.5,211.5C 105.543,214.373 105.71,217.373 106,220.5C 104.622,218.146 103.122,218.146 101.5,220.5C 99.5466,221.156 97.5466,221.489 95.5,221.5C 95.5,224.833 95.5,228.167 95.5,231.5C 96.8333,231.5 98.1667,231.5 99.5,231.5C 99.5,234.167 99.5,236.833 99.5,239.5C 92.8333,239.5 86.1667,239.5 79.5,239.5C 79.762,238.022 79.4287,236.689 78.5,235.5C 77.4593,237.991 76.6259,237.991 76,235.5C 75.5045,233.527 75.3379,231.527 75.5,229.5C 72.6301,229.248 70.2967,230.248 68.5,232.5C 69.4154,234.98 70.9154,235.647 73,234.5C 74.0086,236.025 74.5086,237.692 74.5,239.5C 72.1667,239.5 69.8333,239.5 67.5,239.5C 67.5,238.5 67.5,237.5 67.5,236.5C 59.3078,236.364 54.1411,239.698 52,246.5C 51.3333,248.167 51.3333,249.833 52,251.5C 73.4353,250.238 95.2686,250.238 117.5,251.5C 117.5,247.5 117.5,243.5 117.5,239.5C 116.167,239.5 114.833,239.5 113.5,239.5C 113.421,240.93 113.754,242.264 114.5,243.5C 113.469,244.7 112.635,246.034 112,247.5C 93.8674,246.242 75.8674,246.242 58,247.5C 56.9264,246.382 55.7598,245.382 54.5,244.5C 57.1436,243.604 59.8103,242.771 62.5,242C 80.1863,241.254 95.1863,240.42 107.5,239.5C 107.67,234.141 108.17,228.808 109,223.5C 110.299,223.034 111.799,223.034 113.5,223.5C 113.223,220.552 113.556,217.719 114.5,215C 112.561,214.092 111.561,212.592 111.5,210.5C 110.5,210.5 109.5,210.5 108.5,210.5C 110.033,208.755 112.033,207.755 114.5,207.5 Z"/></g>
<g><path style="opacity:1" fill="#4f4437" d="M 50.5,241.5 C 49.6864,246.119 49.3531,250.786 49.5,255.5C 48.8333,255.5 48.1667,255.5 47.5,255.5C 45.5,255.5 43.5,255.5 41.5,255.5C 40.759,253.646 39.759,251.979 38.5,250.5C 38.5,233.5 38.5,216.5 38.5,199.5C 39.4959,199.586 40.3292,199.252 41,198.5C 41.4997,190.841 41.6664,183.174 41.5,175.5C 43.1667,175.5 44.8333,175.5 46.5,175.5C 46.4985,181.018 46.1651,186.518 45.5,192C 44.9923,195.228 45.9923,197.728 48.5,199.5C 49.1667,213.661 49.8333,227.661 50.5,241.5 Z"/></g>
<g><path style="opacity:1" fill="#d06e49" d="M 355.5,223.5 C 360.573,223.726 365.239,224.726 369.5,226.5C 365.154,226.666 360.821,226.499 356.5,226C 355.748,225.329 355.414,224.496 355.5,223.5 Z"/></g>
<g><path style="opacity:1" fill="#cb7751" d="M 456.5,223.5 C 455.833,224.5 455.167,225.5 454.5,226.5C 449.5,226.5 444.5,226.5 439.5,226.5C 445.141,225.882 450.808,224.882 456.5,223.5 Z"/></g>
<g><path style="opacity:1" fill="#7b584d" d="M 351.5,223.5 C 352.833,223.5 354.167,223.5 355.5,223.5C 355.414,224.496 355.748,225.329 356.5,226C 360.821,226.499 365.154,226.666 369.5,226.5C 369.5,226.833 369.5,227.167 369.5,227.5C 364.821,227.666 360.155,227.499 355.5,227C 353.681,226.26 352.348,225.093 351.5,223.5 Z"/></g>
<g><path style="opacity:1" fill="#424c4d" d="M 131.5,194.5 C 131.232,196.099 131.566,197.432 132.5,198.5C 132.5,217.5 132.5,236.5 132.5,255.5C 131.833,255.5 131.167,255.5 130.5,255.5C 130.667,237.164 130.5,218.83 130,200.5C 129.682,198.939 128.849,197.772 127.5,197C 128.693,195.905 130.027,195.072 131.5,194.5 Z"/></g>
<g><path style="opacity:1" fill="#c46749" d="M 369.5,227.5 C 369.5,227.167 369.5,226.833 369.5,226.5C 370.496,226.414 371.329,226.748 372,227.5C 372.667,232.167 372.667,236.833 372,241.5C 369.619,242.435 367.119,242.768 364.5,242.5C 362.5,242.5 360.5,242.5 358.5,242.5C 358.5,246.167 358.5,249.833 358.5,253.5C 357.517,249.702 357.183,245.702 357.5,241.5C 361.881,241.628 366.215,241.295 370.5,240.5C 370.818,235.968 370.485,231.634 369.5,227.5 Z"/></g>
<g><path style="opacity:1" fill="#65524b" d="M 369.5,227.5 C 370.485,231.634 370.818,235.968 370.5,240.5C 366.215,241.295 361.881,241.628 357.5,241.5C 357.167,241.5 356.833,241.5 356.5,241.5C 360.373,239.57 364.706,238.903 369.5,239.5C 369.5,235.5 369.5,231.5 369.5,227.5 Z"/></g>
<g><path style="opacity:1" fill="#f0ac92" d="M 438.5,226.5 C 438.833,226.5 439.167,226.5 439.5,226.5C 444.5,226.5 449.5,226.5 454.5,226.5C 452.052,227.473 449.385,227.806 446.5,227.5C 444.167,227.5 441.833,227.5 439.5,227.5C 439.5,231.833 439.5,236.167 439.5,240.5C 444.032,240.182 448.366,240.515 452.5,241.5C 448.5,241.5 444.5,241.5 440.5,241.5C 439.508,241.672 438.842,241.338 438.5,240.5C 438.5,235.833 438.5,231.167 438.5,226.5 Z"/></g>
<g><path style="opacity:1" fill="#c56748" d="M 388.5,225.5 C 389.167,225.5 389.5,225.833 389.5,226.5C 389.174,230.884 389.508,235.217 390.5,239.5C 391.167,235.353 391.834,231.353 392.5,227.5C 392.183,231.702 392.517,235.702 393.5,239.5C 395.5,239.5 397.5,239.5 399.5,239.5C 400.5,239.5 401.5,239.5 402.5,239.5C 403.485,235.366 403.818,231.032 403.5,226.5C 404.166,230.684 404.833,235.018 405.5,239.5C 406.167,235.018 406.834,230.684 407.5,226.5C 407.5,227.5 407.5,228.5 407.5,229.5C 407.5,233.167 407.5,236.833 407.5,240.5C 397.413,240.198 387.413,240.698 377.5,242C 376.426,241.261 375.759,240.261 375.5,239C 376.247,234.539 376.747,230.039 377,225.5C 377.739,224.426 378.739,223.759 380,223.5C 382.333,224.833 384.667,224.833 387,223.5C 388.03,223.836 388.53,224.503 388.5,225.5 Z"/></g>
<g><path style="opacity:1" fill="#8c533d" d="M 407.5,229.5 C 408.167,229.5 408.5,229.833 408.5,230.5C 408.5,233.5 408.5,236.5 408.5,239.5C 410.833,239.5 413.167,239.5 415.5,239.5C 413.052,240.473 410.385,240.806 407.5,240.5C 407.5,236.833 407.5,233.167 407.5,229.5 Z"/></g>
<g><path style="opacity:1" fill="#fbf9ed" d="M 446.5,227.5 C 445.659,229.379 445.325,231.379 445.5,233.5C 448.898,233.18 452.232,233.513 455.5,234.5C 455.167,234.833 454.833,235.167 454.5,235.5C 450.015,237.258 445.348,237.591 440.5,236.5C 440.5,237.5 440.5,238.5 440.5,239.5C 447.5,239.5 454.5,239.5 461.5,239.5C 461.776,242.852 460.609,245.519 458,247.5C 458.374,245.231 458.374,242.898 458,240.5C 456.989,241.337 455.822,241.67 454.5,241.5C 454.5,246.167 454.5,250.833 454.5,255.5C 454.167,255.5 453.833,255.5 453.5,255.5C 453.819,250.637 453.486,245.97 452.5,241.5C 448.366,240.515 444.032,240.182 439.5,240.5C 439.5,236.167 439.5,231.833 439.5,227.5C 441.833,227.5 444.167,227.5 446.5,227.5 Z"/></g>
<g><path style="opacity:1" fill="#d57651" d="M 407.5,226.5 C 407.5,226.167 407.5,225.833 407.5,225.5C 410.833,225.5 414.167,225.5 417.5,225.5C 418.167,225.5 418.5,225.833 418.5,226.5C 418.5,230.833 418.5,235.167 418.5,239.5C 419.5,239.5 420.5,239.5 421.5,239.5C 421.5,234.833 421.5,230.167 421.5,225.5C 425.042,225.187 428.375,225.521 431.5,226.5C 428.5,226.5 425.5,226.5 422.5,226.5C 422.182,231.032 422.515,235.366 423.5,239.5C 426.167,239.5 428.833,239.5 431.5,239.5C 432.485,235.366 432.818,231.032 432.5,226.5C 433.485,230.634 433.818,234.968 433.5,239.5C 434.833,239.5 436.167,239.5 437.5,239.5C 437.182,234.968 437.515,230.634 438.5,226.5C 438.5,231.167 438.5,235.833 438.5,240.5C 429.499,241.088 420.499,241.755 411.5,242.5C 409.667,242.415 408.334,241.748 407.5,240.5C 410.385,240.806 413.052,240.473 415.5,239.5C 417.048,239.179 417.715,238.179 417.5,236.5C 417.5,233.167 417.5,229.833 417.5,226.5C 414.167,226.5 410.833,226.5 407.5,226.5 Z"/></g>
<g><path style="opacity:1" fill="#966a59" d="M 356.5,241.5 C 356.833,241.5 357.167,241.5 357.5,241.5C 357.183,245.702 357.517,249.702 358.5,253.5C 358.5,253.833 358.5,254.167 358.5,254.5C 358.5,254.833 358.5,255.167 358.5,255.5C 358.167,255.5 357.833,255.5 357.5,255.5C 357.167,255.5 356.833,255.5 356.5,255.5C 356.5,254.833 356.5,254.167 356.5,253.5C 356.5,249.5 356.5,245.5 356.5,241.5 Z"/></g>
<g><path style="opacity:1" fill="#325c72" d="M 108.5,210.5 C 109.5,210.5 110.5,210.5 111.5,210.5C 111.561,212.592 112.561,214.092 114.5,215C 113.556,217.719 113.223,220.552 113.5,223.5C 111.799,223.034 110.299,223.034 109,223.5C 108.17,228.808 107.67,234.141 107.5,239.5C 95.1863,240.42 80.1863,241.254 62.5,242C 59.8103,242.771 57.1436,243.604 54.5,244.5C 55.7598,245.382 56.9264,246.382 58,247.5C 75.8674,246.242 93.8674,246.242 112,247.5C 112.635,246.034 113.469,244.7 114.5,243.5C 113.754,242.264 113.421,240.93 113.5,239.5C 114.833,239.5 116.167,239.5 117.5,239.5C 117.5,243.5 117.5,247.5 117.5,251.5C 95.2686,250.238 73.4353,250.238 52,251.5C 51.3333,249.833 51.3333,248.167 52,246.5C 54.1411,239.698 59.3078,236.364 67.5,236.5C 67.5,237.5 67.5,238.5 67.5,239.5C 69.8333,239.5 72.1667,239.5 74.5,239.5C 74.5086,237.692 74.0086,236.025 73,234.5C 70.9154,235.647 69.4154,234.98 68.5,232.5C 70.2967,230.248 72.6301,229.248 75.5,229.5C 75.3379,231.527 75.5045,233.527 76,235.5C 76.6259,237.991 77.4593,237.991 78.5,235.5C 79.4287,236.689 79.762,238.022 79.5,239.5C 86.1667,239.5 92.8333,239.5 99.5,239.5C 99.5,236.833 99.5,234.167 99.5,231.5C 98.1667,231.5 96.8333,231.5 95.5,231.5C 95.5,228.167 95.5,224.833 95.5,221.5C 97.5466,221.489 99.5466,221.156 101.5,220.5C 103.122,218.146 104.622,218.146 106,220.5C 105.71,217.373 105.543,214.373 105.5,211.5C 106.209,210.596 107.209,210.263 108.5,210.5 Z"/></g>
<g><path style="opacity:1" fill="#ea612c" d="M 447.5,214.5 C 452.833,214.5 458.167,214.5 463.5,214.5C 463.5,215.833 463.5,217.167 463.5,218.5C 462.323,220.032 460.989,221.532 459.5,223C 458.552,223.483 457.552,223.649 456.5,223.5C 450.808,224.882 445.141,225.882 439.5,226.5C 439.167,226.5 438.833,226.5 438.5,226.5C 437.515,230.634 437.182,234.968 437.5,239.5C 436.167,239.5 434.833,239.5 433.5,239.5C 433.818,234.968 433.485,230.634 432.5,226.5C 432.5,225.5 432.5,224.5 432.5,223.5C 428.351,222.92 424.684,223.586 421.5,225.5C 420.609,226.11 419.609,226.443 418.5,226.5C 418.5,225.833 418.167,225.5 417.5,225.5C 417.38,224.414 416.713,223.747 415.5,223.5C 413.5,224.833 411.5,224.833 409.5,223.5C 408.287,223.747 407.62,224.414 407.5,225.5C 404.574,224.088 401.407,223.422 398,223.5C 394.702,223.593 391.869,224.593 389.5,226.5C 389.5,225.833 389.167,225.5 388.5,225.5C 388.53,224.503 388.03,223.836 387,223.5C 384.667,224.833 382.333,224.833 380,223.5C 378.739,223.759 377.739,224.426 377,225.5C 376.747,230.039 376.247,234.539 375.5,239C 375.759,240.261 376.426,241.261 377.5,242C 387.413,240.698 397.413,240.198 407.5,240.5C 408.334,241.748 409.667,242.415 411.5,242.5C 420.499,241.755 429.499,241.088 438.5,240.5C 438.842,241.338 439.508,241.672 440.5,241.5C 443.974,242.525 447.64,243.192 451.5,243.5C 451.5,246.833 451.5,250.167 451.5,253.5C 420.833,253.5 390.167,253.5 359.5,253.5C 359.5,250.167 359.5,246.833 359.5,243.5C 361.415,243.784 363.081,243.451 364.5,242.5C 367.119,242.768 369.619,242.435 372,241.5C 372.667,236.833 372.667,232.167 372,227.5C 371.329,226.748 370.496,226.414 369.5,226.5C 365.239,224.726 360.573,223.726 355.5,223.5C 354.167,223.5 352.833,223.5 351.5,223.5C 351.5,222.833 351.5,222.167 351.5,221.5C 350.524,220.185 349.524,218.852 348.5,217.5C 352.717,216.088 357.05,215.421 361.5,215.5C 358.954,215.982 356.621,216.982 354.5,218.5C 358.289,218.471 362.122,218.804 366,219.5C 366.5,219.833 367,220.167 367.5,220.5C 366.833,221.167 366.167,221.833 365.5,222.5C 365.833,222.833 366.167,223.167 366.5,223.5C 372.005,221.716 377.672,221.05 383.5,221.5C 383.5,220.5 383.5,219.5 383.5,218.5C 404.849,218.738 426.183,218.404 447.5,217.5C 447.5,218.833 447.5,220.167 447.5,221.5C 444.737,222.455 445.737,222.622 450.5,222C 449.973,219.24 448.973,216.74 447.5,214.5 Z"/></g>
<g><path style="opacity:1" fill="#da6136" d="M 421.5,225.5 C 421.5,230.167 421.5,234.833 421.5,239.5C 420.5,239.5 419.5,239.5 418.5,239.5C 418.5,235.167 418.5,230.833 418.5,226.5C 419.609,226.443 420.609,226.11 421.5,225.5 Z"/></g>
<g><path style="opacity:1" fill="#3e576d" d="M 386.5,239.5 C 384.167,239.5 381.833,239.5 379.5,239.5C 379.5,238.833 379.5,238.167 379.5,237.5C 380.21,235.107 380.877,232.607 381.5,230C 383.044,230.487 384.71,230.987 386.5,231.5C 386.5,234.167 386.5,236.833 386.5,239.5 Z"/></g>
<g><path style="opacity:1" fill="#4a5b69" d="M 408.5,230.5 C 411.5,232.5 414.5,234.5 417.5,236.5C 417.715,238.179 417.048,239.179 415.5,239.5C 413.167,239.5 410.833,239.5 408.5,239.5C 408.5,236.5 408.5,233.5 408.5,230.5 Z"/></g>
<g><path style="opacity:1" fill="#8e5d4a" d="M 378.5,226.5 C 381.625,225.521 384.958,225.187 388.5,225.5C 388.819,230.363 388.486,235.03 387.5,239.5C 387.5,235.5 387.5,231.5 387.5,227.5C 384.713,226.523 381.713,226.19 378.5,226.5 Z"/></g>
<g><path style="opacity:1" fill="#425a5d" d="M 387.5,227.5 C 387.5,231.5 387.5,235.5 387.5,239.5C 387.167,239.5 386.833,239.5 386.5,239.5C 386.5,236.833 386.5,234.167 386.5,231.5C 384.71,230.987 383.044,230.487 381.5,230C 380.877,232.607 380.21,235.107 379.5,237.5C 379.5,234.167 379.5,230.833 379.5,227.5C 382.167,227.5 384.833,227.5 387.5,227.5 Z"/></g>
<g><path style="opacity:1" fill="#5f4c46" d="M 378.5,226.5 C 381.713,226.19 384.713,226.523 387.5,227.5C 384.833,227.5 382.167,227.5 379.5,227.5C 379.5,230.833 379.5,234.167 379.5,237.5C 379.5,238.167 379.5,238.833 379.5,239.5C 378.515,235.366 378.182,231.032 378.5,226.5 Z"/></g>
<g><path style="opacity:1" fill="#fedbbd" d="M 431.5,226.5 C 431.833,226.5 432.167,226.5 432.5,226.5C 432.818,231.032 432.485,235.366 431.5,239.5C 431.5,235.5 431.5,231.5 431.5,227.5C 428.833,227.5 426.167,227.5 423.5,227.5C 423.5,231.5 423.5,235.5 423.5,239.5C 422.515,235.366 422.182,231.032 422.5,226.5C 425.5,226.5 428.5,226.5 431.5,226.5 Z"/></g>
<g><path style="opacity:1" fill="#fcfbf5" d="M 431.5,239.5 C 428.833,239.5 426.167,239.5 423.5,239.5C 423.5,235.5 423.5,231.5 423.5,227.5C 426.167,227.5 428.833,227.5 431.5,227.5C 431.5,231.5 431.5,235.5 431.5,239.5 Z"/></g>
<g><path style="opacity:1" fill="#f5f1ec" d="M 407.5,226.5 C 410.833,226.5 414.167,226.5 417.5,226.5C 417.5,229.833 417.5,233.167 417.5,236.5C 414.5,234.5 411.5,232.5 408.5,230.5C 408.5,229.833 408.167,229.5 407.5,229.5C 407.5,228.5 407.5,227.5 407.5,226.5 Z"/></g>
<g><path style="opacity:1" fill="#d6653f" d="M 432.5,226.5 C 432.167,226.5 431.833,226.5 431.5,226.5C 428.375,225.521 425.042,225.187 421.5,225.5C 424.684,223.586 428.351,222.92 432.5,223.5C 432.5,224.5 432.5,225.5 432.5,226.5 Z"/></g>
<g><path style="opacity:1" fill="#d06839" d="M 417.5,225.5 C 414.167,225.5 410.833,225.5 407.5,225.5C 407.62,224.414 408.287,223.747 409.5,223.5C 411.5,224.833 413.5,224.833 415.5,223.5C 416.713,223.747 417.38,224.414 417.5,225.5 Z"/></g>
<g><path style="opacity:1" fill="#dc683e" d="M 407.5,225.5 C 407.5,225.833 407.5,226.167 407.5,226.5C 406.834,230.684 406.167,235.018 405.5,239.5C 404.833,235.018 404.166,230.684 403.5,226.5C 400.167,225.167 396.833,225.167 393.5,226.5C 392.833,226.5 392.5,226.833 392.5,227.5C 391.834,231.353 391.167,235.353 390.5,239.5C 389.508,235.217 389.174,230.884 389.5,226.5C 391.869,224.593 394.702,223.593 398,223.5C 401.407,223.422 404.574,224.088 407.5,225.5 Z"/></g>
<g><path style="opacity:1" fill="#99634e" d="M 393.5,226.5 C 396.833,225.167 400.167,225.167 403.5,226.5C 403.818,231.032 403.485,235.366 402.5,239.5C 402.5,235.167 402.5,230.833 402.5,226.5C 399.5,226.5 396.5,226.5 393.5,226.5 Z"/></g>
<g><path style="opacity:1" fill="#634e4c" d="M 393.5,226.5 C 396.5,226.5 399.5,226.5 402.5,226.5C 402.5,230.833 402.5,235.167 402.5,239.5C 401.5,239.5 400.5,239.5 399.5,239.5C 401.488,236.03 401.821,232.363 400.5,228.5C 398.591,227.652 396.591,227.318 394.5,227.5C 393.979,231.481 393.646,235.481 393.5,239.5C 392.517,235.702 392.183,231.702 392.5,227.5C 392.5,226.833 392.833,226.5 393.5,226.5 Z"/></g>
<g><path style="opacity:1" fill="#3b5866" d="M 399.5,239.5 C 397.5,239.5 395.5,239.5 393.5,239.5C 393.646,235.481 393.979,231.481 394.5,227.5C 396.591,227.318 398.591,227.652 400.5,228.5C 401.821,232.363 401.488,236.03 399.5,239.5 Z"/></g>
<g><path style="opacity:1" fill="#286272" d="M 356.5,253.5 C 356.5,254.167 356.5,254.833 356.5,255.5C 284.167,255.5 211.833,255.5 139.5,255.5C 139.712,253.616 140.712,252.283 142.5,251.5C 157.51,253.208 172.677,254.208 188,254.5C 244.152,253.514 300.319,253.181 356.5,253.5 Z"/></g>
<g><path style="opacity:1" fill="#415b63" d="M 38.5,250.5 C 39.759,251.979 40.759,253.646 41.5,255.5C 37.5,255.5 33.5,255.5 29.5,255.5C 32.3037,253.595 35.3037,251.929 38.5,250.5 Z"/></g>
<g><path style="opacity:1" fill="#d46941" d="M 364.5,242.5 C 363.081,243.451 361.415,243.784 359.5,243.5C 359.5,246.833 359.5,250.167 359.5,253.5C 390.167,253.5 420.833,253.5 451.5,253.5C 420.671,254.498 389.671,254.831 358.5,254.5C 358.5,254.167 358.5,253.833 358.5,253.5C 358.5,249.833 358.5,246.167 358.5,242.5C 360.5,242.5 362.5,242.5 364.5,242.5 Z"/></g>
<g><path style="opacity:1" fill="#c7754f" d="M 440.5,241.5 C 444.5,241.5 448.5,241.5 452.5,241.5C 453.486,245.97 453.819,250.637 453.5,255.5C 421.833,255.5 390.167,255.5 358.5,255.5C 358.5,255.167 358.5,254.833 358.5,254.5C 389.671,254.831 420.671,254.498 451.5,253.5C 451.5,250.167 451.5,246.833 451.5,243.5C 447.64,243.192 443.974,242.525 440.5,241.5 Z"/></g>
<g><path style="opacity:1" fill="#1b7988" d="M 47.5,255.5 C 48.1667,255.5 48.8333,255.5 49.5,255.5C 73.1667,255.5 96.8333,255.5 120.5,255.5C 122.833,255.5 125.167,255.5 127.5,255.5C 128.5,255.5 129.5,255.5 130.5,255.5C 131.167,255.5 131.833,255.5 132.5,255.5C 134.833,255.5 137.167,255.5 139.5,255.5C 211.833,255.5 284.167,255.5 356.5,255.5C 356.833,255.5 357.167,255.5 357.5,255.5C 357.833,256.167 358.167,256.833 358.5,257.5C 356.167,257.5 353.833,257.5 351.5,257.5C 250.317,256.113 148.984,256.446 47.5,258.5C 47.5,257.5 47.5,256.5 47.5,255.5 Z"/></g>
<g><path style="opacity:1" fill="#1a838f" d="M 351.5,257.5 C 346.544,258.828 341.211,259.495 335.5,259.5C 271.028,259.765 206.528,259.432 142,258.5C 137.248,259.764 132.414,260.431 127.5,260.5C 127.5,261.833 127.5,263.167 127.5,264.5C 122.041,263.777 116.708,262.443 111.5,260.5C 89.9617,259.609 68.6283,258.942 47.5,258.5C 148.984,256.446 250.317,256.113 351.5,257.5 Z"/></g>
<g><path style="opacity:1" fill="#51796a" d="M 357.5,255.5 C 357.833,255.5 358.167,255.5 358.5,255.5C 390.167,255.5 421.833,255.5 453.5,255.5C 453.833,255.5 454.167,255.5 454.5,255.5C 454.5,256.833 454.5,258.167 454.5,259.5C 452.254,258.79 449.92,258.29 447.5,258C 420.835,257.5 394.169,257.333 367.5,257.5C 364.5,257.5 361.5,257.5 358.5,257.5C 358.167,256.833 357.833,256.167 357.5,255.5 Z"/></g>
<g><path style="opacity:1" fill="#148791" d="M 29.5,255.5 C 33.5,255.5 37.5,255.5 41.5,255.5C 43.5,255.5 45.5,255.5 47.5,255.5C 47.5,256.5 47.5,257.5 47.5,258.5C 68.6283,258.942 89.9617,259.609 111.5,260.5C 116.708,262.443 122.041,263.777 127.5,264.5C 127.5,263.167 127.5,261.833 127.5,260.5C 132.414,260.431 137.248,259.764 142,258.5C 206.528,259.432 271.028,259.765 335.5,259.5C 341.211,259.495 346.544,258.828 351.5,257.5C 353.833,257.5 356.167,257.5 358.5,257.5C 361.5,257.5 364.5,257.5 367.5,257.5C 367.5,258.5 367.5,259.5 367.5,260.5C 354.795,262.764 341.962,264.097 329,264.5C 323.212,263.517 317.378,262.85 311.5,262.5C 300.833,263.833 290.167,263.833 279.5,262.5C 274.844,262.402 270.344,263.069 266,264.5C 254.571,263.643 243.071,262.976 231.5,262.5C 202.04,263.904 172.706,264.238 143.5,263.5C 143.5,262.5 143.5,261.5 143.5,260.5C 141.692,260.491 140.025,260.991 138.5,262C 138.833,262.333 139.167,262.667 139.5,263C 136.678,266.105 133.678,266.271 130.5,263.5C 129.397,265.104 127.897,266.104 126,266.5C 124.211,265.591 122.377,265.424 120.5,266C 121.737,266.232 122.737,266.732 123.5,267.5C 119.5,267.5 115.5,267.5 111.5,267.5C 111.5,266.167 111.5,264.833 111.5,263.5C 92.822,263.722 74.1553,263.389 55.5,262.5C 48.3664,261.107 41.1997,259.774 34,258.5C 32.6739,258.755 31.6739,259.422 31,260.5C 30.6667,260.167 30.3333,259.833 30,259.5C 29.5026,262.146 29.3359,264.813 29.5,267.5C 28.1667,267.5 26.8333,267.5 25.5,267.5C 25.5,263.5 25.5,259.5 25.5,255.5C 26.8333,255.5 28.1667,255.5 29.5,255.5 Z"/></g>
<g><path style="opacity:1" fill="#168693" d="M 367.5,257.5 C 394.169,257.333 420.835,257.5 447.5,258C 449.92,258.29 452.254,258.79 454.5,259.5C 454.5,262.167 454.5,264.833 454.5,267.5C 344.167,267.5 233.833,267.5 123.5,267.5C 122.737,266.732 121.737,266.232 120.5,266C 122.377,265.424 124.211,265.591 126,266.5C 127.897,266.104 129.397,265.104 130.5,263.5C 133.678,266.271 136.678,266.105 139.5,263C 139.167,262.667 138.833,262.333 138.5,262C 140.025,260.991 141.692,260.491 143.5,260.5C 143.5,261.5 143.5,262.5 143.5,263.5C 172.706,264.238 202.04,263.904 231.5,262.5C 243.071,262.976 254.571,263.643 266,264.5C 270.344,263.069 274.844,262.402 279.5,262.5C 290.167,263.833 300.833,263.833 311.5,262.5C 317.378,262.85 323.212,263.517 329,264.5C 341.962,264.097 354.795,262.764 367.5,260.5C 367.5,259.5 367.5,258.5 367.5,257.5 Z"/></g>
<g><path style="opacity:1" fill="#17878a" d="M 367.5,261.5 C 390.843,261.167 414.176,261.5 437.5,262.5C 425.833,262.833 414.167,263.167 402.5,263.5C 390.48,263.499 378.814,262.832 367.5,261.5 Z"/></g>
<g><path style="opacity:1" fill="#158593" d="M 111.5,267.5 C 84.1667,267.5 56.8333,267.5 29.5,267.5C 29.3359,264.813 29.5026,262.146 30,259.5C 30.3333,259.833 30.6667,260.167 31,260.5C 31.6739,259.422 32.6739,258.755 34,258.5C 41.1997,259.774 48.3664,261.107 55.5,262.5C 74.1553,263.389 92.822,263.722 111.5,263.5C 111.5,264.833 111.5,266.167 111.5,267.5 Z"/></g>
</svg>
